<mxfile host="app.diagrams.net" modified="2023-10-10T14:58:12.684Z" agent="Mozilla/5.0 (Macintosh; Intel Mac OS X 10.15; rv:109.0) Gecko/20100101 Firefox/118.0" etag="FaGqzP7zeR9MmNG82RQC" version="22.0.3" type="github" pages="4">
  <diagram id="wz1mTYhX842FH1mQJFwb" name="market_update_db">
    <mxGraphModel dx="1059" dy="800" grid="1" gridSize="10" guides="1" tooltips="1" connect="1" arrows="1" fold="1" page="1" pageScale="1" pageWidth="850" pageHeight="1100" background="none" math="0" shadow="0">
      <root>
        <mxCell id="0" />
        <mxCell id="1" parent="0" />
        <mxCell id="ntnpPrHAhSZCtvK63xe1-4" value="" style="group" parent="1" vertex="1" connectable="0">
          <mxGeometry x="80" y="40" width="350" height="190" as="geometry" />
        </mxCell>
        <mxCell id="DIZFXzwjujgxviRM6GMb-2" value="&lt;div&gt;events&lt;/div&gt;" style="rounded=0;whiteSpace=wrap;html=1;fontSize=16;" parent="ntnpPrHAhSZCtvK63xe1-4" vertex="1">
          <mxGeometry x="120" width="120" height="60" as="geometry" />
        </mxCell>
        <mxCell id="DIZFXzwjujgxviRM6GMb-3" value="rowid" style="ellipse;whiteSpace=wrap;html=1;fontSize=16;rounded=0;" parent="ntnpPrHAhSZCtvK63xe1-4" vertex="1">
          <mxGeometry y="110" width="80" height="80" as="geometry" />
        </mxCell>
        <mxCell id="DIZFXzwjujgxviRM6GMb-4" value="" style="edgeStyle=none;curved=1;rounded=0;orthogonalLoop=1;jettySize=auto;html=1;fontSize=12;startSize=8;endSize=8;strokeWidth=3;entryX=0.5;entryY=0;entryDx=0;entryDy=0;" parent="ntnpPrHAhSZCtvK63xe1-4" source="DIZFXzwjujgxviRM6GMb-2" target="DIZFXzwjujgxviRM6GMb-3" edge="1">
          <mxGeometry relative="1" as="geometry" />
        </mxCell>
        <mxCell id="DIZFXzwjujgxviRM6GMb-5" value="name" style="ellipse;whiteSpace=wrap;html=1;fontSize=16;rounded=0;fillColor=#dae8fc;strokeColor=#6c8ebf;" parent="ntnpPrHAhSZCtvK63xe1-4" vertex="1">
          <mxGeometry x="90" y="110" width="80" height="80" as="geometry" />
        </mxCell>
        <mxCell id="oEi04HnWx0UP74RaMrt--1" style="edgeStyle=none;curved=1;rounded=0;orthogonalLoop=1;jettySize=auto;html=1;entryX=0.5;entryY=0;entryDx=0;entryDy=0;fontSize=12;startSize=8;endSize=8;strokeWidth=1;" parent="ntnpPrHAhSZCtvK63xe1-4" source="DIZFXzwjujgxviRM6GMb-2" target="DIZFXzwjujgxviRM6GMb-5" edge="1">
          <mxGeometry relative="1" as="geometry" />
        </mxCell>
        <mxCell id="DIZFXzwjujgxviRM6GMb-6" value="date" style="ellipse;whiteSpace=wrap;html=1;fontSize=16;rounded=0;fillColor=#f8cecc;strokeColor=#b85450;" parent="ntnpPrHAhSZCtvK63xe1-4" vertex="1">
          <mxGeometry x="180" y="110" width="80" height="80" as="geometry" />
        </mxCell>
        <mxCell id="oEi04HnWx0UP74RaMrt--2" style="edgeStyle=none;curved=1;rounded=0;orthogonalLoop=1;jettySize=auto;html=1;entryX=0.5;entryY=0;entryDx=0;entryDy=0;fontSize=12;startSize=8;endSize=8;strokeWidth=1;" parent="ntnpPrHAhSZCtvK63xe1-4" source="DIZFXzwjujgxviRM6GMb-2" target="DIZFXzwjujgxviRM6GMb-6" edge="1">
          <mxGeometry relative="1" as="geometry" />
        </mxCell>
        <mxCell id="ntnpPrHAhSZCtvK63xe1-1" value="sport" style="ellipse;whiteSpace=wrap;html=1;fontSize=16;rounded=0;fillColor=#f8cecc;strokeColor=#b85450;" parent="ntnpPrHAhSZCtvK63xe1-4" vertex="1">
          <mxGeometry x="270" y="110" width="80" height="80" as="geometry" />
        </mxCell>
        <mxCell id="ntnpPrHAhSZCtvK63xe1-3" style="edgeStyle=none;curved=1;rounded=0;orthogonalLoop=1;jettySize=auto;html=1;entryX=0.5;entryY=0;entryDx=0;entryDy=0;fontSize=12;startSize=8;endSize=8;" parent="ntnpPrHAhSZCtvK63xe1-4" source="DIZFXzwjujgxviRM6GMb-2" target="ntnpPrHAhSZCtvK63xe1-1" edge="1">
          <mxGeometry relative="1" as="geometry" />
        </mxCell>
        <mxCell id="3kCuwkoQdU8Mp-FPrsb3-14" style="edgeStyle=none;curved=1;rounded=0;orthogonalLoop=1;jettySize=auto;html=1;fontSize=12;startSize=8;endSize=8;dashed=1;entryX=0.763;entryY=0.088;entryDx=0;entryDy=0;entryPerimeter=0;" parent="1" source="ntnpPrHAhSZCtvK63xe1-6" target="DIZFXzwjujgxviRM6GMb-3" edge="1">
          <mxGeometry relative="1" as="geometry" />
        </mxCell>
        <mxCell id="CHFtOKFr9euByadbv3e0-3" style="edgeStyle=none;curved=1;rounded=0;orthogonalLoop=1;jettySize=auto;html=1;entryX=0.5;entryY=1;entryDx=0;entryDy=0;fontSize=12;startSize=8;endSize=8;dashed=1;" parent="1" source="WTh4qs6SsMeRtpesjjGm-2" target="DIZFXzwjujgxviRM6GMb-3" edge="1">
          <mxGeometry relative="1" as="geometry" />
        </mxCell>
        <mxCell id="CHFtOKFr9euByadbv3e0-12" style="edgeStyle=none;curved=1;rounded=0;orthogonalLoop=1;jettySize=auto;html=1;entryX=0.5;entryY=1;entryDx=0;entryDy=0;fontSize=12;startSize=8;endSize=8;dashed=1;" parent="1" source="CHFtOKFr9euByadbv3e0-7" target="ntnpPrHAhSZCtvK63xe1-7" edge="1">
          <mxGeometry relative="1" as="geometry" />
        </mxCell>
        <mxCell id="CHFtOKFr9euByadbv3e0-31" style="edgeStyle=none;curved=1;rounded=0;orthogonalLoop=1;jettySize=auto;html=1;entryX=0.5;entryY=1;entryDx=0;entryDy=0;fontSize=12;startSize=8;endSize=8;dashed=1;" parent="1" source="CHFtOKFr9euByadbv3e0-26" target="CHFtOKFr9euByadbv3e0-19" edge="1">
          <mxGeometry relative="1" as="geometry" />
        </mxCell>
        <mxCell id="CHFtOKFr9euByadbv3e0-32" style="edgeStyle=none;curved=1;rounded=0;orthogonalLoop=1;jettySize=auto;html=1;exitX=0;exitY=0.5;exitDx=0;exitDy=0;entryX=1;entryY=0;entryDx=0;entryDy=0;fontSize=12;startSize=8;endSize=8;dashed=1;strokeWidth=1;" parent="1" source="CHFtOKFr9euByadbv3e0-14" target="ntnpPrHAhSZCtvK63xe1-7" edge="1">
          <mxGeometry relative="1" as="geometry" />
        </mxCell>
        <mxCell id="2xTP_VXrZ1XI-ENCgBIw-4" value="" style="group" parent="1" vertex="1" connectable="0">
          <mxGeometry x="1010" y="40" width="170" height="190" as="geometry" />
        </mxCell>
        <mxCell id="CHFtOKFr9euByadbv3e0-14" value="selections" style="rounded=0;whiteSpace=wrap;html=1;fontSize=16;" parent="2xTP_VXrZ1XI-ENCgBIw-4" vertex="1">
          <mxGeometry x="30" width="120" height="60" as="geometry" />
        </mxCell>
        <mxCell id="CHFtOKFr9euByadbv3e0-15" value="" style="edgeStyle=none;curved=1;rounded=0;orthogonalLoop=1;jettySize=auto;html=1;fontSize=12;startSize=8;endSize=8;strokeWidth=3;entryX=0.5;entryY=0;entryDx=0;entryDy=0;" parent="2xTP_VXrZ1XI-ENCgBIw-4" source="CHFtOKFr9euByadbv3e0-14" target="CHFtOKFr9euByadbv3e0-19" edge="1">
          <mxGeometry relative="1" as="geometry" />
        </mxCell>
        <mxCell id="CHFtOKFr9euByadbv3e0-16" style="edgeStyle=none;curved=1;rounded=0;orthogonalLoop=1;jettySize=auto;html=1;entryX=0.5;entryY=0;entryDx=0;entryDy=0;fontSize=12;startSize=8;endSize=8;strokeWidth=1;" parent="2xTP_VXrZ1XI-ENCgBIw-4" source="CHFtOKFr9euByadbv3e0-14" target="CHFtOKFr9euByadbv3e0-20" edge="1">
          <mxGeometry relative="1" as="geometry" />
        </mxCell>
        <mxCell id="CHFtOKFr9euByadbv3e0-19" value="rowid" style="ellipse;whiteSpace=wrap;html=1;fontSize=16;rounded=0;" parent="2xTP_VXrZ1XI-ENCgBIw-4" vertex="1">
          <mxGeometry y="110" width="80" height="80" as="geometry" />
        </mxCell>
        <mxCell id="CHFtOKFr9euByadbv3e0-20" value="name" style="ellipse;whiteSpace=wrap;html=1;fontSize=16;rounded=0;fillColor=#dae8fc;strokeColor=#6c8ebf;" parent="2xTP_VXrZ1XI-ENCgBIw-4" vertex="1">
          <mxGeometry x="90" y="110" width="80" height="80" as="geometry" />
        </mxCell>
        <mxCell id="2xTP_VXrZ1XI-ENCgBIw-8" value="" style="group" parent="1" vertex="1" connectable="0">
          <mxGeometry x="440" y="40" width="540" height="190" as="geometry" />
        </mxCell>
        <mxCell id="2xTP_VXrZ1XI-ENCgBIw-1" value="line" style="ellipse;whiteSpace=wrap;html=1;fontSize=16;rounded=0;fillColor=#f8cecc;strokeColor=#b85450;container=0;" parent="2xTP_VXrZ1XI-ENCgBIw-8" vertex="1">
          <mxGeometry x="450" y="110" width="80" height="80" as="geometry" />
        </mxCell>
        <mxCell id="2xTP_VXrZ1XI-ENCgBIw-3" style="edgeStyle=none;curved=1;rounded=0;orthogonalLoop=1;jettySize=auto;html=1;entryX=0.5;entryY=0;entryDx=0;entryDy=0;fontSize=12;startSize=8;endSize=8;" parent="2xTP_VXrZ1XI-ENCgBIw-8" source="ntnpPrHAhSZCtvK63xe1-6" target="2xTP_VXrZ1XI-ENCgBIw-1" edge="1">
          <mxGeometry relative="1" as="geometry" />
        </mxCell>
        <mxCell id="ntnpPrHAhSZCtvK63xe1-6" value="markets" style="rounded=0;whiteSpace=wrap;html=1;fontSize=16;" parent="2xTP_VXrZ1XI-ENCgBIw-8" vertex="1">
          <mxGeometry x="210" width="120" height="60" as="geometry" />
        </mxCell>
        <mxCell id="ntnpPrHAhSZCtvK63xe1-8" value="" style="edgeStyle=none;curved=1;rounded=0;orthogonalLoop=1;jettySize=auto;html=1;fontSize=12;startSize=8;endSize=8;strokeWidth=3;entryX=0.5;entryY=0;entryDx=0;entryDy=0;" parent="2xTP_VXrZ1XI-ENCgBIw-8" source="ntnpPrHAhSZCtvK63xe1-6" target="ntnpPrHAhSZCtvK63xe1-7" edge="1">
          <mxGeometry relative="1" as="geometry" />
        </mxCell>
        <mxCell id="ntnpPrHAhSZCtvK63xe1-10" style="edgeStyle=none;curved=1;rounded=0;orthogonalLoop=1;jettySize=auto;html=1;entryX=0.5;entryY=0;entryDx=0;entryDy=0;fontSize=12;startSize=8;endSize=8;strokeWidth=1;" parent="2xTP_VXrZ1XI-ENCgBIw-8" source="ntnpPrHAhSZCtvK63xe1-6" target="ntnpPrHAhSZCtvK63xe1-9" edge="1">
          <mxGeometry relative="1" as="geometry" />
        </mxCell>
        <mxCell id="ntnpPrHAhSZCtvK63xe1-12" style="edgeStyle=none;curved=1;rounded=0;orthogonalLoop=1;jettySize=auto;html=1;entryX=0.5;entryY=0;entryDx=0;entryDy=0;fontSize=12;startSize=8;endSize=8;strokeWidth=1;" parent="2xTP_VXrZ1XI-ENCgBIw-8" source="ntnpPrHAhSZCtvK63xe1-6" target="ntnpPrHAhSZCtvK63xe1-11" edge="1">
          <mxGeometry relative="1" as="geometry" />
        </mxCell>
        <mxCell id="ntnpPrHAhSZCtvK63xe1-14" style="edgeStyle=none;curved=1;rounded=0;orthogonalLoop=1;jettySize=auto;html=1;entryX=0.5;entryY=0;entryDx=0;entryDy=0;fontSize=12;startSize=8;endSize=8;" parent="2xTP_VXrZ1XI-ENCgBIw-8" source="ntnpPrHAhSZCtvK63xe1-6" target="ntnpPrHAhSZCtvK63xe1-13" edge="1">
          <mxGeometry relative="1" as="geometry" />
        </mxCell>
        <mxCell id="ntnpPrHAhSZCtvK63xe1-7" value="rowid" style="ellipse;whiteSpace=wrap;html=1;fontSize=16;rounded=0;" parent="2xTP_VXrZ1XI-ENCgBIw-8" vertex="1">
          <mxGeometry y="110" width="80" height="80" as="geometry" />
        </mxCell>
        <mxCell id="ntnpPrHAhSZCtvK63xe1-9" value="name" style="ellipse;whiteSpace=wrap;html=1;fontSize=16;rounded=0;fillColor=#f8cecc;strokeColor=#b85450;" parent="2xTP_VXrZ1XI-ENCgBIw-8" vertex="1">
          <mxGeometry x="90" y="110" width="80" height="80" as="geometry" />
        </mxCell>
        <mxCell id="ntnpPrHAhSZCtvK63xe1-11" value="kind" style="ellipse;whiteSpace=wrap;html=1;fontSize=16;rounded=0;fillColor=#f8cecc;strokeColor=#b85450;" parent="2xTP_VXrZ1XI-ENCgBIw-8" vertex="1">
          <mxGeometry x="180" y="110" width="80" height="80" as="geometry" />
        </mxCell>
        <mxCell id="ntnpPrHAhSZCtvK63xe1-13" value="period" style="ellipse;whiteSpace=wrap;html=1;fontSize=16;rounded=0;fillColor=#f8cecc;strokeColor=#b85450;" parent="2xTP_VXrZ1XI-ENCgBIw-8" vertex="1">
          <mxGeometry x="270" y="110" width="80" height="80" as="geometry" />
        </mxCell>
        <mxCell id="3kCuwkoQdU8Mp-FPrsb3-11" value="player" style="ellipse;whiteSpace=wrap;html=1;fontSize=16;rounded=0;fillColor=#dae8fc;strokeColor=#6c8ebf;" parent="2xTP_VXrZ1XI-ENCgBIw-8" vertex="1">
          <mxGeometry x="360" y="110" width="80" height="80" as="geometry" />
        </mxCell>
        <mxCell id="3kCuwkoQdU8Mp-FPrsb3-12" style="edgeStyle=none;curved=1;rounded=0;orthogonalLoop=1;jettySize=auto;html=1;entryX=0.5;entryY=0;entryDx=0;entryDy=0;fontSize=12;startSize=8;endSize=8;" parent="2xTP_VXrZ1XI-ENCgBIw-8" source="ntnpPrHAhSZCtvK63xe1-6" target="3kCuwkoQdU8Mp-FPrsb3-11" edge="1">
          <mxGeometry relative="1" as="geometry" />
        </mxCell>
        <mxCell id="2xTP_VXrZ1XI-ENCgBIw-9" value="" style="group" parent="1" vertex="1" connectable="0">
          <mxGeometry x="120" y="330" width="260" height="190" as="geometry" />
        </mxCell>
        <mxCell id="2xTP_VXrZ1XI-ENCgBIw-5" value="name" style="ellipse;whiteSpace=wrap;html=1;fontSize=16;rounded=0;fillColor=#dae8fc;strokeColor=#6c8ebf;container=0;" parent="2xTP_VXrZ1XI-ENCgBIw-9" vertex="1">
          <mxGeometry x="180" y="110" width="80" height="80" as="geometry" />
        </mxCell>
        <mxCell id="2xTP_VXrZ1XI-ENCgBIw-7" style="edgeStyle=none;curved=1;rounded=0;orthogonalLoop=1;jettySize=auto;html=1;entryX=0.5;entryY=0;entryDx=0;entryDy=0;fontSize=12;startSize=8;endSize=8;" parent="2xTP_VXrZ1XI-ENCgBIw-9" source="WTh4qs6SsMeRtpesjjGm-2" target="2xTP_VXrZ1XI-ENCgBIw-5" edge="1">
          <mxGeometry relative="1" as="geometry" />
        </mxCell>
        <mxCell id="WTh4qs6SsMeRtpesjjGm-2" value="sb_events" style="rounded=0;whiteSpace=wrap;html=1;fontSize=16;" parent="2xTP_VXrZ1XI-ENCgBIw-9" vertex="1">
          <mxGeometry x="70" width="120" height="60" as="geometry" />
        </mxCell>
        <mxCell id="WTh4qs6SsMeRtpesjjGm-3" value="id" style="ellipse;whiteSpace=wrap;html=1;fontSize=16;rounded=0;fillColor=#dae8fc;strokeColor=#6c8ebf;" parent="2xTP_VXrZ1XI-ENCgBIw-9" vertex="1">
          <mxGeometry y="110" width="80" height="80" as="geometry" />
        </mxCell>
        <mxCell id="WTh4qs6SsMeRtpesjjGm-4" value="" style="edgeStyle=none;curved=1;rounded=0;orthogonalLoop=1;jettySize=auto;html=1;fontSize=12;startSize=8;endSize=8;strokeWidth=3;entryX=0.5;entryY=0;entryDx=0;entryDy=0;" parent="2xTP_VXrZ1XI-ENCgBIw-9" source="WTh4qs6SsMeRtpesjjGm-2" target="WTh4qs6SsMeRtpesjjGm-3" edge="1">
          <mxGeometry relative="1" as="geometry" />
        </mxCell>
        <mxCell id="WTh4qs6SsMeRtpesjjGm-5" value="sb" style="ellipse;whiteSpace=wrap;html=1;fontSize=16;rounded=0;fillColor=#f8cecc;strokeColor=#b85450;" parent="2xTP_VXrZ1XI-ENCgBIw-9" vertex="1">
          <mxGeometry x="90" y="110" width="80" height="80" as="geometry" />
        </mxCell>
        <mxCell id="WTh4qs6SsMeRtpesjjGm-6" style="edgeStyle=none;curved=1;rounded=0;orthogonalLoop=1;jettySize=auto;html=1;entryX=0.5;entryY=0;entryDx=0;entryDy=0;fontSize=12;startSize=8;endSize=8;strokeWidth=3;" parent="2xTP_VXrZ1XI-ENCgBIw-9" source="WTh4qs6SsMeRtpesjjGm-2" target="WTh4qs6SsMeRtpesjjGm-5" edge="1">
          <mxGeometry relative="1" as="geometry" />
        </mxCell>
        <mxCell id="2xTP_VXrZ1XI-ENCgBIw-12" value="" style="group" parent="1" vertex="1" connectable="0">
          <mxGeometry x="580" y="330" width="260" height="200" as="geometry" />
        </mxCell>
        <mxCell id="CHFtOKFr9euByadbv3e0-7" value="sb_markets" style="rounded=0;whiteSpace=wrap;html=1;fontSize=16;" parent="2xTP_VXrZ1XI-ENCgBIw-12" vertex="1">
          <mxGeometry x="70" width="120" height="60" as="geometry" />
        </mxCell>
        <mxCell id="CHFtOKFr9euByadbv3e0-8" value="sb" style="ellipse;whiteSpace=wrap;html=1;fontSize=16;rounded=0;fillColor=#f8cecc;strokeColor=#b85450;" parent="2xTP_VXrZ1XI-ENCgBIw-12" vertex="1">
          <mxGeometry x="90" y="120" width="80" height="80" as="geometry" />
        </mxCell>
        <mxCell id="CHFtOKFr9euByadbv3e0-9" value="" style="edgeStyle=none;curved=1;rounded=0;orthogonalLoop=1;jettySize=auto;html=1;fontSize=12;startSize=8;endSize=8;strokeWidth=3;entryX=0.5;entryY=0;entryDx=0;entryDy=0;" parent="2xTP_VXrZ1XI-ENCgBIw-12" source="CHFtOKFr9euByadbv3e0-7" target="CHFtOKFr9euByadbv3e0-8" edge="1">
          <mxGeometry relative="1" as="geometry" />
        </mxCell>
        <mxCell id="CHFtOKFr9euByadbv3e0-10" value="player" style="ellipse;whiteSpace=wrap;html=1;fontSize=16;rounded=0;fillColor=#dae8fc;strokeColor=#6c8ebf;" parent="2xTP_VXrZ1XI-ENCgBIw-12" vertex="1">
          <mxGeometry x="180" y="120" width="80" height="80" as="geometry" />
        </mxCell>
        <mxCell id="CHFtOKFr9euByadbv3e0-11" style="edgeStyle=none;curved=1;rounded=0;orthogonalLoop=1;jettySize=auto;html=1;entryX=0.5;entryY=0;entryDx=0;entryDy=0;fontSize=12;startSize=8;endSize=8;strokeWidth=1;" parent="2xTP_VXrZ1XI-ENCgBIw-12" source="CHFtOKFr9euByadbv3e0-7" target="CHFtOKFr9euByadbv3e0-10" edge="1">
          <mxGeometry relative="1" as="geometry" />
        </mxCell>
        <mxCell id="2xTP_VXrZ1XI-ENCgBIw-10" value="id" style="ellipse;whiteSpace=wrap;html=1;fontSize=16;rounded=0;fillColor=#dae8fc;strokeColor=#6c8ebf;" parent="2xTP_VXrZ1XI-ENCgBIw-12" vertex="1">
          <mxGeometry y="120" width="80" height="80" as="geometry" />
        </mxCell>
        <mxCell id="2xTP_VXrZ1XI-ENCgBIw-11" style="edgeStyle=none;curved=1;rounded=0;orthogonalLoop=1;jettySize=auto;html=1;entryX=0.5;entryY=0;entryDx=0;entryDy=0;fontSize=12;startSize=8;endSize=8;strokeWidth=3;" parent="2xTP_VXrZ1XI-ENCgBIw-12" source="CHFtOKFr9euByadbv3e0-7" target="2xTP_VXrZ1XI-ENCgBIw-10" edge="1">
          <mxGeometry relative="1" as="geometry" />
        </mxCell>
        <mxCell id="2xTP_VXrZ1XI-ENCgBIw-15" value="" style="group" parent="1" vertex="1" connectable="0">
          <mxGeometry x="960" y="330" width="260" height="190" as="geometry" />
        </mxCell>
        <mxCell id="CHFtOKFr9euByadbv3e0-26" value="sb_selections" style="rounded=0;whiteSpace=wrap;html=1;fontSize=16;" parent="2xTP_VXrZ1XI-ENCgBIw-15" vertex="1">
          <mxGeometry x="70" width="120" height="60" as="geometry" />
        </mxCell>
        <mxCell id="CHFtOKFr9euByadbv3e0-27" value="id" style="ellipse;whiteSpace=wrap;html=1;fontSize=16;rounded=0;fillColor=#dae8fc;strokeColor=#6c8ebf;" parent="2xTP_VXrZ1XI-ENCgBIw-15" vertex="1">
          <mxGeometry y="110" width="80" height="80" as="geometry" />
        </mxCell>
        <mxCell id="CHFtOKFr9euByadbv3e0-28" value="" style="edgeStyle=none;curved=1;rounded=0;orthogonalLoop=1;jettySize=auto;html=1;fontSize=12;startSize=8;endSize=8;strokeWidth=3;entryX=0.5;entryY=0;entryDx=0;entryDy=0;" parent="2xTP_VXrZ1XI-ENCgBIw-15" source="CHFtOKFr9euByadbv3e0-26" target="CHFtOKFr9euByadbv3e0-27" edge="1">
          <mxGeometry relative="1" as="geometry" />
        </mxCell>
        <mxCell id="CHFtOKFr9euByadbv3e0-29" value="sb" style="ellipse;whiteSpace=wrap;html=1;fontSize=16;rounded=0;fillColor=#f8cecc;strokeColor=#b85450;" parent="2xTP_VXrZ1XI-ENCgBIw-15" vertex="1">
          <mxGeometry x="90" y="110" width="80" height="80" as="geometry" />
        </mxCell>
        <mxCell id="CHFtOKFr9euByadbv3e0-30" style="edgeStyle=none;curved=1;rounded=0;orthogonalLoop=1;jettySize=auto;html=1;entryX=0.5;entryY=0;entryDx=0;entryDy=0;fontSize=12;startSize=8;endSize=8;strokeWidth=3;" parent="2xTP_VXrZ1XI-ENCgBIw-15" source="CHFtOKFr9euByadbv3e0-26" target="CHFtOKFr9euByadbv3e0-29" edge="1">
          <mxGeometry relative="1" as="geometry" />
        </mxCell>
        <mxCell id="2xTP_VXrZ1XI-ENCgBIw-13" value="odds" style="ellipse;whiteSpace=wrap;html=1;fontSize=16;rounded=0;fillColor=#dae8fc;strokeColor=#6c8ebf;" parent="2xTP_VXrZ1XI-ENCgBIw-15" vertex="1">
          <mxGeometry x="180" y="110" width="80" height="80" as="geometry" />
        </mxCell>
        <mxCell id="2xTP_VXrZ1XI-ENCgBIw-14" style="edgeStyle=none;curved=1;rounded=0;orthogonalLoop=1;jettySize=auto;html=1;entryX=0.5;entryY=0;entryDx=0;entryDy=0;fontSize=12;startSize=8;endSize=8;" parent="2xTP_VXrZ1XI-ENCgBIw-15" source="CHFtOKFr9euByadbv3e0-26" target="2xTP_VXrZ1XI-ENCgBIw-13" edge="1">
          <mxGeometry relative="1" as="geometry" />
        </mxCell>
      </root>
    </mxGraphModel>
  </diagram>
  <diagram name="db" id="VhwQI55e-35OCuxMVlLL">
    <mxGraphModel dx="1193" dy="830" grid="1" gridSize="10" guides="1" tooltips="1" connect="1" arrows="1" fold="1" page="1" pageScale="1" pageWidth="850" pageHeight="1100" math="0" shadow="0">
      <root>
        <mxCell id="0" />
        <mxCell id="1" parent="0" />
        <mxCell id="I5ME2hWSj5yUnG4-PrFD-9" style="edgeStyle=orthogonalEdgeStyle;rounded=0;orthogonalLoop=1;jettySize=auto;html=1;exitX=0.5;exitY=1;exitDx=0;exitDy=0;entryX=0.5;entryY=0;entryDx=0;entryDy=0;" parent="1" source="I5ME2hWSj5yUnG4-PrFD-1" target="I5ME2hWSj5yUnG4-PrFD-8" edge="1">
          <mxGeometry relative="1" as="geometry" />
        </mxCell>
        <mxCell id="I5ME2hWSj5yUnG4-PrFD-13" style="edgeStyle=orthogonalEdgeStyle;rounded=0;orthogonalLoop=1;jettySize=auto;html=1;exitX=0.5;exitY=1;exitDx=0;exitDy=0;entryX=0.5;entryY=0;entryDx=0;entryDy=0;" parent="1" source="I5ME2hWSj5yUnG4-PrFD-1" target="I5ME2hWSj5yUnG4-PrFD-3" edge="1">
          <mxGeometry relative="1" as="geometry" />
        </mxCell>
        <mxCell id="I5ME2hWSj5yUnG4-PrFD-14" style="edgeStyle=orthogonalEdgeStyle;rounded=0;orthogonalLoop=1;jettySize=auto;html=1;exitX=0.5;exitY=1;exitDx=0;exitDy=0;entryX=0.5;entryY=0;entryDx=0;entryDy=0;strokeWidth=3;" parent="1" source="I5ME2hWSj5yUnG4-PrFD-1" target="I5ME2hWSj5yUnG4-PrFD-2" edge="1">
          <mxGeometry relative="1" as="geometry" />
        </mxCell>
        <mxCell id="fhBeyeh4vp4E6t8ATHYA-10" style="edgeStyle=orthogonalEdgeStyle;rounded=0;orthogonalLoop=1;jettySize=auto;html=1;exitX=0.5;exitY=1;exitDx=0;exitDy=0;entryX=1;entryY=0;entryDx=0;entryDy=0;dashed=1;" parent="1" source="I5ME2hWSj5yUnG4-PrFD-1" target="fhBeyeh4vp4E6t8ATHYA-7" edge="1">
          <mxGeometry relative="1" as="geometry" />
        </mxCell>
        <mxCell id="I5ME2hWSj5yUnG4-PrFD-1" value="&lt;div&gt;events&lt;/div&gt;" style="rounded=0;whiteSpace=wrap;html=1;fillColor=#dae8fc;strokeColor=#6c8ebf;" parent="1" vertex="1">
          <mxGeometry x="176" y="60" width="120" height="60" as="geometry" />
        </mxCell>
        <mxCell id="I5ME2hWSj5yUnG4-PrFD-2" value="&lt;div&gt;id&lt;/div&gt;" style="ellipse;whiteSpace=wrap;html=1;aspect=fixed;rounded=0;" parent="1" vertex="1">
          <mxGeometry x="141" y="190" width="40" height="40" as="geometry" />
        </mxCell>
        <mxCell id="I5ME2hWSj5yUnG4-PrFD-3" value="name" style="ellipse;whiteSpace=wrap;html=1;aspect=fixed;rounded=0;" parent="1" vertex="1">
          <mxGeometry x="191" y="190" width="40" height="40" as="geometry" />
        </mxCell>
        <mxCell id="I5ME2hWSj5yUnG4-PrFD-8" value="&lt;div&gt;date&lt;/div&gt;" style="ellipse;whiteSpace=wrap;html=1;aspect=fixed;rounded=0;" parent="1" vertex="1">
          <mxGeometry x="291" y="190" width="40" height="40" as="geometry" />
        </mxCell>
        <mxCell id="D0NXfzU50yP9r9zkfLpD-5" style="edgeStyle=orthogonalEdgeStyle;rounded=0;orthogonalLoop=1;jettySize=auto;html=1;entryX=0;entryY=0.5;entryDx=0;entryDy=0;strokeWidth=3;dashed=1;" edge="1" parent="1" source="I5ME2hWSj5yUnG4-PrFD-15" target="I5ME2hWSj5yUnG4-PrFD-2">
          <mxGeometry relative="1" as="geometry">
            <mxPoint x="140" y="210" as="targetPoint" />
            <Array as="points">
              <mxPoint x="460" y="30" />
              <mxPoint x="130" y="30" />
              <mxPoint x="130" y="210" />
            </Array>
          </mxGeometry>
        </mxCell>
        <mxCell id="D0NXfzU50yP9r9zkfLpD-6" style="edgeStyle=orthogonalEdgeStyle;rounded=0;orthogonalLoop=1;jettySize=auto;html=1;exitX=0.5;exitY=1;exitDx=0;exitDy=0;entryX=0.5;entryY=0;entryDx=0;entryDy=0;strokeWidth=3;" edge="1" parent="1" source="I5ME2hWSj5yUnG4-PrFD-15" target="D0NXfzU50yP9r9zkfLpD-1">
          <mxGeometry relative="1" as="geometry" />
        </mxCell>
        <mxCell id="D0NXfzU50yP9r9zkfLpD-7" style="edgeStyle=orthogonalEdgeStyle;rounded=0;orthogonalLoop=1;jettySize=auto;html=1;exitX=0.5;exitY=1;exitDx=0;exitDy=0;strokeWidth=3;" edge="1" parent="1" source="I5ME2hWSj5yUnG4-PrFD-15" target="D0NXfzU50yP9r9zkfLpD-2">
          <mxGeometry relative="1" as="geometry" />
        </mxCell>
        <mxCell id="D0NXfzU50yP9r9zkfLpD-9" style="edgeStyle=orthogonalEdgeStyle;rounded=0;orthogonalLoop=1;jettySize=auto;html=1;exitX=0.5;exitY=1;exitDx=0;exitDy=0;entryX=0.5;entryY=0;entryDx=0;entryDy=0;strokeWidth=3;" edge="1" parent="1" source="I5ME2hWSj5yUnG4-PrFD-15" target="D0NXfzU50yP9r9zkfLpD-3">
          <mxGeometry relative="1" as="geometry" />
        </mxCell>
        <mxCell id="D0NXfzU50yP9r9zkfLpD-11" style="edgeStyle=orthogonalEdgeStyle;rounded=0;orthogonalLoop=1;jettySize=auto;html=1;exitX=0.5;exitY=1;exitDx=0;exitDy=0;strokeWidth=3;" edge="1" parent="1" source="I5ME2hWSj5yUnG4-PrFD-15" target="D0NXfzU50yP9r9zkfLpD-4">
          <mxGeometry relative="1" as="geometry" />
        </mxCell>
        <mxCell id="D0NXfzU50yP9r9zkfLpD-13" style="edgeStyle=orthogonalEdgeStyle;rounded=0;orthogonalLoop=1;jettySize=auto;html=1;exitX=0.5;exitY=1;exitDx=0;exitDy=0;entryX=0.5;entryY=0;entryDx=0;entryDy=0;strokeWidth=3;" edge="1" parent="1" source="I5ME2hWSj5yUnG4-PrFD-15" target="D0NXfzU50yP9r9zkfLpD-12">
          <mxGeometry relative="1" as="geometry" />
        </mxCell>
        <mxCell id="I5ME2hWSj5yUnG4-PrFD-15" value="&lt;div&gt;markets&lt;/div&gt;" style="rounded=0;whiteSpace=wrap;html=1;" parent="1" vertex="1">
          <mxGeometry x="400" y="60" width="120" height="60" as="geometry" />
        </mxCell>
        <mxCell id="I5ME2hWSj5yUnG4-PrFD-23" style="edgeStyle=orthogonalEdgeStyle;rounded=0;orthogonalLoop=1;jettySize=auto;html=1;exitX=0.5;exitY=1;exitDx=0;exitDy=0;strokeWidth=3;" parent="1" source="I5ME2hWSj5yUnG4-PrFD-20" target="I5ME2hWSj5yUnG4-PrFD-21" edge="1">
          <mxGeometry relative="1" as="geometry" />
        </mxCell>
        <mxCell id="I5ME2hWSj5yUnG4-PrFD-24" style="edgeStyle=orthogonalEdgeStyle;rounded=0;orthogonalLoop=1;jettySize=auto;html=1;exitX=0.5;exitY=1;exitDx=0;exitDy=0;" parent="1" source="I5ME2hWSj5yUnG4-PrFD-20" target="I5ME2hWSj5yUnG4-PrFD-22" edge="1">
          <mxGeometry relative="1" as="geometry" />
        </mxCell>
        <mxCell id="D0NXfzU50yP9r9zkfLpD-15" style="edgeStyle=orthogonalEdgeStyle;rounded=0;orthogonalLoop=1;jettySize=auto;html=1;exitX=0.5;exitY=0;exitDx=0;exitDy=0;entryX=0;entryY=0;entryDx=0;entryDy=0;dashed=1;" edge="1" parent="1" source="I5ME2hWSj5yUnG4-PrFD-20" target="D0NXfzU50yP9r9zkfLpD-1">
          <mxGeometry relative="1" as="geometry">
            <Array as="points">
              <mxPoint x="660" y="40" />
              <mxPoint x="346" y="40" />
            </Array>
          </mxGeometry>
        </mxCell>
        <mxCell id="I5ME2hWSj5yUnG4-PrFD-20" value="&lt;div&gt;selections&lt;/div&gt;" style="rounded=0;whiteSpace=wrap;html=1;fillColor=#dae8fc;strokeColor=#6c8ebf;" parent="1" vertex="1">
          <mxGeometry x="600" y="60" width="120" height="60" as="geometry" />
        </mxCell>
        <mxCell id="I5ME2hWSj5yUnG4-PrFD-21" value="id" style="ellipse;whiteSpace=wrap;html=1;aspect=fixed;rounded=0;" parent="1" vertex="1">
          <mxGeometry x="615" y="190" width="40" height="40" as="geometry" />
        </mxCell>
        <mxCell id="I5ME2hWSj5yUnG4-PrFD-22" value="name" style="ellipse;whiteSpace=wrap;html=1;aspect=fixed;rounded=0;" parent="1" vertex="1">
          <mxGeometry x="665" y="190" width="40" height="40" as="geometry" />
        </mxCell>
        <mxCell id="I5ME2hWSj5yUnG4-PrFD-96" style="edgeStyle=orthogonalEdgeStyle;rounded=0;orthogonalLoop=1;jettySize=auto;html=1;entryX=0.5;entryY=1;entryDx=0;entryDy=0;fontSize=12;startSize=8;endSize=8;exitX=0.5;exitY=0;exitDx=0;exitDy=0;" parent="1" source="I5ME2hWSj5yUnG4-PrFD-87" target="I5ME2hWSj5yUnG4-PrFD-94" edge="1">
          <mxGeometry relative="1" as="geometry">
            <mxPoint x="725" y="390" as="sourcePoint" />
          </mxGeometry>
        </mxCell>
        <mxCell id="I5ME2hWSj5yUnG4-PrFD-66" style="edgeStyle=orthogonalEdgeStyle;rounded=0;orthogonalLoop=1;jettySize=auto;html=1;exitX=0;exitY=0.5;exitDx=0;exitDy=0;entryX=0.5;entryY=1;entryDx=0;entryDy=0;fontSize=12;startSize=8;endSize=8;dashed=1;" parent="1" source="I5ME2hWSj5yUnG4-PrFD-65" target="I5ME2hWSj5yUnG4-PrFD-2" edge="1">
          <mxGeometry relative="1" as="geometry">
            <Array as="points">
              <mxPoint x="161" y="420" />
            </Array>
          </mxGeometry>
        </mxCell>
        <mxCell id="I5ME2hWSj5yUnG4-PrFD-69" style="edgeStyle=orthogonalEdgeStyle;rounded=0;orthogonalLoop=1;jettySize=auto;html=1;entryX=0.5;entryY=1;entryDx=0;entryDy=0;fontSize=12;startSize=8;endSize=8;exitX=0.5;exitY=0;exitDx=0;exitDy=0;strokeWidth=1;" parent="1" source="I5ME2hWSj5yUnG4-PrFD-65" target="I5ME2hWSj5yUnG4-PrFD-67" edge="1">
          <mxGeometry relative="1" as="geometry">
            <mxPoint x="260" y="360" as="sourcePoint" />
          </mxGeometry>
        </mxCell>
        <mxCell id="I5ME2hWSj5yUnG4-PrFD-71" style="edgeStyle=orthogonalEdgeStyle;rounded=0;orthogonalLoop=1;jettySize=auto;html=1;exitX=0.5;exitY=0;exitDx=0;exitDy=0;entryX=0.5;entryY=1;entryDx=0;entryDy=0;fontSize=12;startSize=8;endSize=8;" parent="1" source="I5ME2hWSj5yUnG4-PrFD-65" target="I5ME2hWSj5yUnG4-PrFD-68" edge="1">
          <mxGeometry relative="1" as="geometry" />
        </mxCell>
        <mxCell id="I5ME2hWSj5yUnG4-PrFD-77" style="edgeStyle=orthogonalEdgeStyle;rounded=0;orthogonalLoop=1;jettySize=auto;html=1;entryX=0;entryY=0.5;entryDx=0;entryDy=0;fontSize=12;startSize=8;endSize=8;dashed=1;exitX=0.5;exitY=1;exitDx=0;exitDy=0;" parent="1" source="I5ME2hWSj5yUnG4-PrFD-65" target="I5ME2hWSj5yUnG4-PrFD-73" edge="1">
          <mxGeometry relative="1" as="geometry" />
        </mxCell>
        <mxCell id="I5ME2hWSj5yUnG4-PrFD-65" value="&lt;div&gt;&lt;font style=&quot;font-size: 12px;&quot;&gt;sb_events&lt;/font&gt;&lt;/div&gt;" style="rounded=0;whiteSpace=wrap;html=1;fontSize=16;fillColor=#dae8fc;strokeColor=#6c8ebf;" parent="1" vertex="1">
          <mxGeometry x="176" y="390" width="120" height="60" as="geometry" />
        </mxCell>
        <mxCell id="I5ME2hWSj5yUnG4-PrFD-67" value="id" style="ellipse;whiteSpace=wrap;html=1;aspect=fixed;rounded=0;" parent="1" vertex="1">
          <mxGeometry x="191" y="290" width="40" height="40" as="geometry" />
        </mxCell>
        <mxCell id="I5ME2hWSj5yUnG4-PrFD-68" value="&lt;div&gt;url&lt;/div&gt;" style="ellipse;whiteSpace=wrap;html=1;aspect=fixed;rounded=0;" parent="1" vertex="1">
          <mxGeometry x="241" y="290" width="40" height="40" as="geometry" />
        </mxCell>
        <mxCell id="I5ME2hWSj5yUnG4-PrFD-75" style="edgeStyle=orthogonalEdgeStyle;rounded=0;orthogonalLoop=1;jettySize=auto;html=1;exitX=0.5;exitY=0;exitDx=0;exitDy=0;entryX=0.5;entryY=1;entryDx=0;entryDy=0;fontSize=12;startSize=8;endSize=8;strokeWidth=3;" parent="1" source="I5ME2hWSj5yUnG4-PrFD-72" target="I5ME2hWSj5yUnG4-PrFD-73" edge="1">
          <mxGeometry relative="1" as="geometry" />
        </mxCell>
        <mxCell id="I5ME2hWSj5yUnG4-PrFD-72" value="&lt;font style=&quot;font-size: 12px;&quot;&gt;sbs&lt;/font&gt;" style="rounded=0;whiteSpace=wrap;html=1;fontSize=16;fillColor=#f8cecc;strokeColor=#b85450;" parent="1" vertex="1">
          <mxGeometry x="434" y="620" width="120" height="60" as="geometry" />
        </mxCell>
        <mxCell id="I5ME2hWSj5yUnG4-PrFD-73" value="name" style="ellipse;whiteSpace=wrap;html=1;aspect=fixed;rounded=0;" parent="1" vertex="1">
          <mxGeometry x="474" y="520" width="40" height="40" as="geometry" />
        </mxCell>
        <mxCell id="I5ME2hWSj5yUnG4-PrFD-84" style="edgeStyle=orthogonalEdgeStyle;rounded=0;orthogonalLoop=1;jettySize=auto;html=1;exitX=0.5;exitY=1;exitDx=0;exitDy=0;entryX=0;entryY=0;entryDx=0;entryDy=0;fontSize=12;startSize=8;endSize=8;dashed=1;" parent="1" source="I5ME2hWSj5yUnG4-PrFD-78" target="I5ME2hWSj5yUnG4-PrFD-73" edge="1">
          <mxGeometry relative="1" as="geometry">
            <Array as="points">
              <mxPoint x="454" y="526" />
            </Array>
          </mxGeometry>
        </mxCell>
        <mxCell id="I5ME2hWSj5yUnG4-PrFD-78" value="&lt;font style=&quot;font-size: 12px;&quot;&gt;sb_markets&lt;/font&gt;" style="rounded=0;whiteSpace=wrap;html=1;fontSize=16;fillColor=#f8cecc;strokeColor=#b85450;" parent="1" vertex="1">
          <mxGeometry x="394" y="390" width="120" height="60" as="geometry" />
        </mxCell>
        <mxCell id="I5ME2hWSj5yUnG4-PrFD-85" style="edgeStyle=orthogonalEdgeStyle;rounded=0;orthogonalLoop=1;jettySize=auto;html=1;entryX=0.5;entryY=1;entryDx=0;entryDy=0;fontSize=12;startSize=8;endSize=8;strokeWidth=1;" parent="1" source="I5ME2hWSj5yUnG4-PrFD-87" target="I5ME2hWSj5yUnG4-PrFD-88" edge="1">
          <mxGeometry relative="1" as="geometry" />
        </mxCell>
        <mxCell id="I5ME2hWSj5yUnG4-PrFD-92" style="edgeStyle=orthogonalEdgeStyle;rounded=0;orthogonalLoop=1;jettySize=auto;html=1;exitX=0.25;exitY=1;exitDx=0;exitDy=0;entryX=0.5;entryY=0;entryDx=0;entryDy=0;fontSize=12;startSize=8;endSize=8;dashed=1;" parent="1" source="I5ME2hWSj5yUnG4-PrFD-87" target="I5ME2hWSj5yUnG4-PrFD-73" edge="1">
          <mxGeometry relative="1" as="geometry">
            <Array as="points">
              <mxPoint x="600" y="485" />
              <mxPoint x="494" y="485" />
            </Array>
          </mxGeometry>
        </mxCell>
        <mxCell id="I5ME2hWSj5yUnG4-PrFD-87" value="&lt;font style=&quot;font-size: 12px;&quot;&gt;sb_selections&lt;/font&gt;" style="rounded=0;whiteSpace=wrap;html=1;fontSize=16;fillColor=#dae8fc;strokeColor=#6c8ebf;" parent="1" vertex="1">
          <mxGeometry x="615" y="390" width="120" height="60" as="geometry" />
        </mxCell>
        <mxCell id="I5ME2hWSj5yUnG4-PrFD-88" value="id" style="ellipse;whiteSpace=wrap;html=1;aspect=fixed;rounded=0;" parent="1" vertex="1">
          <mxGeometry x="655" y="290" width="40" height="40" as="geometry" />
        </mxCell>
        <mxCell id="I5ME2hWSj5yUnG4-PrFD-91" style="edgeStyle=none;curved=1;rounded=0;orthogonalLoop=1;jettySize=auto;html=1;exitX=0.175;exitY=0;exitDx=0;exitDy=0;entryX=0.5;entryY=1;entryDx=0;entryDy=0;fontSize=12;startSize=8;endSize=8;exitPerimeter=0;strokeColor=default;dashed=1;" parent="1" source="I5ME2hWSj5yUnG4-PrFD-87" target="I5ME2hWSj5yUnG4-PrFD-21" edge="1">
          <mxGeometry relative="1" as="geometry" />
        </mxCell>
        <mxCell id="I5ME2hWSj5yUnG4-PrFD-94" value="odds" style="ellipse;whiteSpace=wrap;html=1;aspect=fixed;rounded=0;" parent="1" vertex="1">
          <mxGeometry x="705" y="290" width="40" height="40" as="geometry" />
        </mxCell>
        <mxCell id="gw-YqNqCUMPzAq4pdc0_-1" value="static" style="ellipse;shape=cloud;whiteSpace=wrap;html=1;fillColor=#f8cecc;strokeColor=#b85450;" parent="1" vertex="1">
          <mxGeometry x="730" y="20" width="120" height="80" as="geometry" />
        </mxCell>
        <mxCell id="gw-YqNqCUMPzAq4pdc0_-2" value="dynamic" style="ellipse;shape=cloud;whiteSpace=wrap;html=1;fillColor=#dae8fc;strokeColor=#6c8ebf;" parent="1" vertex="1">
          <mxGeometry x="730" y="110" width="120" height="80" as="geometry" />
        </mxCell>
        <mxCell id="fhBeyeh4vp4E6t8ATHYA-8" style="edgeStyle=orthogonalEdgeStyle;rounded=0;orthogonalLoop=1;jettySize=auto;html=1;exitX=0.5;exitY=1;exitDx=0;exitDy=0;entryX=0.5;entryY=0;entryDx=0;entryDy=0;strokeWidth=3;" parent="1" source="fhBeyeh4vp4E6t8ATHYA-6" target="fhBeyeh4vp4E6t8ATHYA-7" edge="1">
          <mxGeometry relative="1" as="geometry" />
        </mxCell>
        <mxCell id="fhBeyeh4vp4E6t8ATHYA-6" value="sports" style="rounded=0;whiteSpace=wrap;html=1;fillColor=#f8cecc;strokeColor=#b85450;" parent="1" vertex="1">
          <mxGeometry y="60" width="120" height="60" as="geometry" />
        </mxCell>
        <mxCell id="fhBeyeh4vp4E6t8ATHYA-7" value="name" style="ellipse;whiteSpace=wrap;html=1;aspect=fixed;rounded=0;" parent="1" vertex="1">
          <mxGeometry x="40" y="190" width="40" height="40" as="geometry" />
        </mxCell>
        <mxCell id="fhBeyeh4vp4E6t8ATHYA-12" style="edgeStyle=orthogonalEdgeStyle;rounded=0;orthogonalLoop=1;jettySize=auto;html=1;entryX=0;entryY=1;entryDx=0;entryDy=0;dashed=1;" parent="1" source="fhBeyeh4vp4E6t8ATHYA-11" target="I5ME2hWSj5yUnG4-PrFD-73" edge="1">
          <mxGeometry relative="1" as="geometry">
            <Array as="points">
              <mxPoint x="104" y="554" />
            </Array>
          </mxGeometry>
        </mxCell>
        <mxCell id="fhBeyeh4vp4E6t8ATHYA-13" style="edgeStyle=orthogonalEdgeStyle;rounded=0;orthogonalLoop=1;jettySize=auto;html=1;dashed=1;" parent="1" source="fhBeyeh4vp4E6t8ATHYA-11" target="fhBeyeh4vp4E6t8ATHYA-7" edge="1">
          <mxGeometry relative="1" as="geometry" />
        </mxCell>
        <mxCell id="fhBeyeh4vp4E6t8ATHYA-16" style="edgeStyle=orthogonalEdgeStyle;rounded=0;orthogonalLoop=1;jettySize=auto;html=1;exitX=0.5;exitY=0;exitDx=0;exitDy=0;entryX=0.5;entryY=1;entryDx=0;entryDy=0;" parent="1" source="fhBeyeh4vp4E6t8ATHYA-11" target="fhBeyeh4vp4E6t8ATHYA-14" edge="1">
          <mxGeometry relative="1" as="geometry" />
        </mxCell>
        <mxCell id="fhBeyeh4vp4E6t8ATHYA-11" value="sb_sports" style="rounded=0;whiteSpace=wrap;html=1;fillColor=#f8cecc;strokeColor=#b85450;" parent="1" vertex="1">
          <mxGeometry y="390" width="120" height="60" as="geometry" />
        </mxCell>
        <mxCell id="fhBeyeh4vp4E6t8ATHYA-14" value="name" style="ellipse;whiteSpace=wrap;html=1;aspect=fixed;rounded=0;" parent="1" vertex="1">
          <mxGeometry x="66" y="290" width="40" height="40" as="geometry" />
        </mxCell>
        <mxCell id="D0NXfzU50yP9r9zkfLpD-1" value="rowid" style="ellipse;whiteSpace=wrap;html=1;aspect=fixed;rounded=0;" vertex="1" parent="1">
          <mxGeometry x="340" y="190" width="40" height="40" as="geometry" />
        </mxCell>
        <mxCell id="D0NXfzU50yP9r9zkfLpD-2" value="name" style="ellipse;whiteSpace=wrap;html=1;aspect=fixed;rounded=0;fillColor=#f8cecc;strokeColor=#b85450;" vertex="1" parent="1">
          <mxGeometry x="390" y="190" width="40" height="40" as="geometry" />
        </mxCell>
        <mxCell id="D0NXfzU50yP9r9zkfLpD-3" value="kind" style="ellipse;whiteSpace=wrap;html=1;aspect=fixed;rounded=0;fillColor=#f8cecc;strokeColor=#b85450;" vertex="1" parent="1">
          <mxGeometry x="440" y="190" width="40" height="40" as="geometry" />
        </mxCell>
        <mxCell id="D0NXfzU50yP9r9zkfLpD-4" value="player" style="ellipse;whiteSpace=wrap;html=1;aspect=fixed;rounded=0;fillColor=#dae8fc;strokeColor=#6c8ebf;" vertex="1" parent="1">
          <mxGeometry x="490" y="190" width="40" height="40" as="geometry" />
        </mxCell>
        <mxCell id="D0NXfzU50yP9r9zkfLpD-12" value="period" style="ellipse;whiteSpace=wrap;html=1;aspect=fixed;rounded=0;fillColor=#f8cecc;strokeColor=#b85450;" vertex="1" parent="1">
          <mxGeometry x="540" y="190" width="40" height="40" as="geometry" />
        </mxCell>
      </root>
    </mxGraphModel>
  </diagram>
  <diagram id="44Nfo_IZXYgWZWlY4_e8" name="process">
    <mxGraphModel dx="1735" dy="1207" grid="1" gridSize="10" guides="1" tooltips="1" connect="1" arrows="1" fold="1" page="1" pageScale="1" pageWidth="850" pageHeight="1100" math="0" shadow="0">
      <root>
        <mxCell id="0" />
        <mxCell id="1" parent="0" />
        <mxCell id="3f5citvKsISVUxwCIeuk-5" style="edgeStyle=orthogonalEdgeStyle;rounded=0;orthogonalLoop=1;jettySize=auto;html=1;exitX=1;exitY=0.5;exitDx=0;exitDy=0;entryX=0;entryY=0;entryDx=70;entryDy=80;entryPerimeter=0;" parent="1" source="VwaiQFRow1Z-0odvICsz-4" target="2BChi0avzNCMFJGdp_sq-5" edge="1">
          <mxGeometry relative="1" as="geometry">
            <Array as="points">
              <mxPoint x="280" y="360" />
            </Array>
          </mxGeometry>
        </mxCell>
        <mxCell id="VwaiQFRow1Z-0odvICsz-4" value="get_events()" style="shape=parallelogram;perimeter=parallelogramPerimeter;whiteSpace=wrap;html=1;fixedSize=1;fillColor=#d5e8d4;strokeColor=#82b366;" parent="1" vertex="1">
          <mxGeometry x="105" y="330" width="120" height="60" as="geometry" />
        </mxCell>
        <mxCell id="NjzHuf-6U7BauVV8IOxd-8" style="edgeStyle=orthogonalEdgeStyle;rounded=0;orthogonalLoop=1;jettySize=auto;html=1;exitX=1;exitY=0.5;exitDx=0;exitDy=0;entryX=0.012;entryY=0.498;entryDx=0;entryDy=0;entryPerimeter=0;" parent="1" source="VwaiQFRow1Z-0odvICsz-5" target="NjzHuf-6U7BauVV8IOxd-7" edge="1">
          <mxGeometry relative="1" as="geometry">
            <Array as="points" />
          </mxGeometry>
        </mxCell>
        <mxCell id="VwaiQFRow1Z-0odvICsz-5" value="get_odds()" style="shape=parallelogram;perimeter=parallelogramPerimeter;whiteSpace=wrap;html=1;fixedSize=1;fillColor=#d5e8d4;strokeColor=#82b366;" parent="1" vertex="1">
          <mxGeometry x="400" y="890" width="120" height="60" as="geometry" />
        </mxCell>
        <mxCell id="3f5citvKsISVUxwCIeuk-4" style="edgeStyle=orthogonalEdgeStyle;rounded=0;orthogonalLoop=1;jettySize=auto;html=1;entryX=0.25;entryY=1;entryDx=0;entryDy=0;" parent="1" source="2BChi0avzNCMFJGdp_sq-5" target="2BChi0avzNCMFJGdp_sq-40" edge="1">
          <mxGeometry relative="1" as="geometry">
            <mxPoint x="386.55999999999995" y="281.1200000000001" as="targetPoint" />
            <Array as="points">
              <mxPoint x="530" y="281" />
            </Array>
          </mxGeometry>
        </mxCell>
        <mxCell id="2BChi0avzNCMFJGdp_sq-5" value="events" style="shape=cube;whiteSpace=wrap;html=1;boundedLbl=1;backgroundOutline=1;darkOpacity=0.05;darkOpacity2=0.1;" parent="1" vertex="1">
          <mxGeometry x="210" y="240" width="120" height="80" as="geometry" />
        </mxCell>
        <mxCell id="2BChi0avzNCMFJGdp_sq-9" value="&lt;div&gt;&lt;b&gt;event&lt;/b&gt;:&lt;/div&gt;&lt;div&gt;id, name, sport,&lt;/div&gt;&lt;div&gt;date, url, sb&lt;br&gt;&lt;/div&gt;" style="ellipse;whiteSpace=wrap;html=1;" parent="1" vertex="1">
          <mxGeometry x="335" y="300" width="120" height="80" as="geometry" />
        </mxCell>
        <mxCell id="2BChi0avzNCMFJGdp_sq-32" style="edgeStyle=orthogonalEdgeStyle;rounded=0;orthogonalLoop=1;jettySize=auto;html=1;entryX=0.5;entryY=0;entryDx=0;entryDy=0;strokeWidth=3;exitX=0.5;exitY=1;exitDx=0;exitDy=0;" parent="1" source="2BChi0avzNCMFJGdp_sq-16" target="VwaiQFRow1Z-0odvICsz-4" edge="1">
          <mxGeometry relative="1" as="geometry">
            <mxPoint x="-0.44999999999998863" y="280" as="sourcePoint" />
            <mxPoint x="-0.44999999999998863" y="350" as="targetPoint" />
          </mxGeometry>
        </mxCell>
        <mxCell id="mwF6YOh2PZlSq1mBTz3_-6" value="&lt;font style=&quot;font-size: 20px;&quot;&gt;1&lt;/font&gt;" style="edgeLabel;html=1;align=center;verticalAlign=middle;resizable=0;points=[];" parent="2BChi0avzNCMFJGdp_sq-32" vertex="1" connectable="0">
          <mxGeometry x="-0.0473" y="2" relative="1" as="geometry">
            <mxPoint as="offset" />
          </mxGeometry>
        </mxCell>
        <mxCell id="2BChi0avzNCMFJGdp_sq-38" value="&lt;font style=&quot;font-size: 20px;&quot;&gt;2&lt;/font&gt;" style="edgeStyle=orthogonalEdgeStyle;rounded=0;orthogonalLoop=1;jettySize=auto;html=1;exitX=1;exitY=0.5;exitDx=0;exitDy=0;entryX=0;entryY=0.5;entryDx=0;entryDy=0;strokeWidth=3;" parent="1" source="2BChi0avzNCMFJGdp_sq-16" target="2BChi0avzNCMFJGdp_sq-40" edge="1">
          <mxGeometry relative="1" as="geometry">
            <mxPoint x="230" y="200" as="targetPoint" />
          </mxGeometry>
        </mxCell>
        <mxCell id="2BChi0avzNCMFJGdp_sq-16" value="match_or_register_events()" style="shape=parallelogram;perimeter=parallelogramPerimeter;whiteSpace=wrap;html=1;fixedSize=1;fillColor=#dae8fc;strokeColor=#6c8ebf;" parent="1" vertex="1">
          <mxGeometry x="55" y="170" width="220" height="60" as="geometry" />
        </mxCell>
        <mxCell id="2BChi0avzNCMFJGdp_sq-39" value="&lt;b&gt;db&lt;/b&gt;" style="ellipse;shape=cloud;whiteSpace=wrap;html=1;fillColor=#f8cecc;strokeColor=#b85450;" parent="1" vertex="1">
          <mxGeometry x="565" y="20" width="120" height="80" as="geometry" />
        </mxCell>
        <mxCell id="WagDdIbW7WpA05wU8E_I-5" style="edgeStyle=orthogonalEdgeStyle;rounded=0;orthogonalLoop=1;jettySize=auto;html=1;exitX=1;exitY=0.5;exitDx=0;exitDy=0;entryX=0;entryY=0.5;entryDx=0;entryDy=0;strokeWidth=3;" parent="1" source="0Z8dkhgDmU7wRRAgmXaG-8" target="WagDdIbW7WpA05wU8E_I-3" edge="1">
          <mxGeometry relative="1" as="geometry" />
        </mxCell>
        <mxCell id="2BChi0avzNCMFJGdp_sq-40" value="match_or_register_event()" style="shape=parallelogram;perimeter=parallelogramPerimeter;whiteSpace=wrap;html=1;fixedSize=1;fillColor=#f8cecc;strokeColor=#b85450;" parent="1" vertex="1">
          <mxGeometry x="480" y="170" width="200" height="60" as="geometry" />
        </mxCell>
        <mxCell id="WagDdIbW7WpA05wU8E_I-4" value="&lt;font style=&quot;font-size: 20px;&quot;&gt;no&lt;/font&gt;" style="edgeStyle=orthogonalEdgeStyle;rounded=0;orthogonalLoop=1;jettySize=auto;html=1;exitX=0.5;exitY=1;exitDx=0;exitDy=0;strokeWidth=3;" parent="1" source="WagDdIbW7WpA05wU8E_I-3" edge="1">
          <mxGeometry relative="1" as="geometry">
            <mxPoint x="760" y="290" as="targetPoint" />
          </mxGeometry>
        </mxCell>
        <mxCell id="WagDdIbW7WpA05wU8E_I-6" style="edgeStyle=orthogonalEdgeStyle;rounded=0;orthogonalLoop=1;jettySize=auto;html=1;exitX=1;exitY=0.5;exitDx=0;exitDy=0;entryX=0;entryY=0.5;entryDx=0;entryDy=0;strokeWidth=3;" parent="1" source="WagDdIbW7WpA05wU8E_I-3" target="WagDdIbW7WpA05wU8E_I-8" edge="1">
          <mxGeometry relative="1" as="geometry">
            <mxPoint x="860" y="200" as="targetPoint" />
          </mxGeometry>
        </mxCell>
        <mxCell id="WagDdIbW7WpA05wU8E_I-7" value="&lt;font style=&quot;font-size: 20px;&quot;&gt;yes&lt;/font&gt;" style="edgeLabel;html=1;align=center;verticalAlign=middle;resizable=0;points=[];" parent="WagDdIbW7WpA05wU8E_I-6" vertex="1" connectable="0">
          <mxGeometry x="-0.2435" y="1" relative="1" as="geometry">
            <mxPoint as="offset" />
          </mxGeometry>
        </mxCell>
        <mxCell id="WagDdIbW7WpA05wU8E_I-3" value="exists?" style="rhombus;whiteSpace=wrap;html=1;" parent="1" vertex="1">
          <mxGeometry x="950" y="160" width="80" height="80" as="geometry" />
        </mxCell>
        <mxCell id="WagDdIbW7WpA05wU8E_I-8" value="Return, no actions needed" style="ellipse;whiteSpace=wrap;html=1;aspect=fixed;" parent="1" vertex="1">
          <mxGeometry x="1130" y="160" width="80" height="80" as="geometry" />
        </mxCell>
        <mxCell id="XIxRZZfZnWlUdcHviTWb-4" style="edgeStyle=orthogonalEdgeStyle;rounded=0;orthogonalLoop=1;jettySize=auto;html=1;exitX=0.5;exitY=1;exitDx=0;exitDy=0;entryX=0.5;entryY=0;entryDx=0;entryDy=0;strokeWidth=3;" parent="1" source="WagDdIbW7WpA05wU8E_I-9" target="XIxRZZfZnWlUdcHviTWb-3" edge="1">
          <mxGeometry relative="1" as="geometry" />
        </mxCell>
        <mxCell id="WagDdIbW7WpA05wU8E_I-9" value="_match_event()" style="shape=parallelogram;perimeter=parallelogramPerimeter;whiteSpace=wrap;html=1;fixedSize=1;fillColor=#dae8fc;strokeColor=#6c8ebf;" parent="1" vertex="1">
          <mxGeometry x="700" y="290" width="120" height="60" as="geometry" />
        </mxCell>
        <mxCell id="XIxRZZfZnWlUdcHviTWb-2" style="edgeStyle=orthogonalEdgeStyle;rounded=0;orthogonalLoop=1;jettySize=auto;html=1;exitX=0;exitY=0;exitDx=120;exitDy=50;exitPerimeter=0;entryX=0;entryY=0.5;entryDx=0;entryDy=0;" parent="1" source="XIxRZZfZnWlUdcHviTWb-1" target="WagDdIbW7WpA05wU8E_I-9" edge="1">
          <mxGeometry relative="1" as="geometry">
            <Array as="points">
              <mxPoint x="690" y="320" />
              <mxPoint x="690" y="320" />
            </Array>
          </mxGeometry>
        </mxCell>
        <mxCell id="XIxRZZfZnWlUdcHviTWb-1" value="&lt;font color=&quot;#3399ff&quot;&gt;sb_event&lt;/font&gt;, &lt;font color=&quot;#ea6b66&quot;&gt;potential_events&lt;/font&gt;" style="shape=cube;whiteSpace=wrap;html=1;boundedLbl=1;backgroundOutline=1;darkOpacity=0.05;darkOpacity2=0.1;" parent="1" vertex="1">
          <mxGeometry x="540" y="270" width="120" height="80" as="geometry" />
        </mxCell>
        <mxCell id="KgmE5demH_Q6FdKg4M9q-3" value="&lt;font style=&quot;font-size: 20px;&quot;&gt;yes&lt;/font&gt;" style="edgeStyle=orthogonalEdgeStyle;rounded=0;orthogonalLoop=1;jettySize=auto;html=1;exitX=0.5;exitY=1;exitDx=0;exitDy=0;entryX=0.5;entryY=0;entryDx=0;entryDy=0;strokeWidth=3;" parent="1" source="XIxRZZfZnWlUdcHviTWb-3" target="XIxRZZfZnWlUdcHviTWb-9" edge="1">
          <mxGeometry relative="1" as="geometry" />
        </mxCell>
        <mxCell id="KgmE5demH_Q6FdKg4M9q-5" style="edgeStyle=orthogonalEdgeStyle;rounded=0;orthogonalLoop=1;jettySize=auto;html=1;exitX=0;exitY=0.5;exitDx=0;exitDy=0;entryX=1;entryY=0.5;entryDx=0;entryDy=0;strokeWidth=3;" parent="1" source="XIxRZZfZnWlUdcHviTWb-3" target="KgmE5demH_Q6FdKg4M9q-2" edge="1">
          <mxGeometry relative="1" as="geometry" />
        </mxCell>
        <mxCell id="KgmE5demH_Q6FdKg4M9q-6" value="&lt;font style=&quot;font-size: 20px;&quot;&gt;no&lt;/font&gt;" style="edgeLabel;html=1;align=center;verticalAlign=middle;resizable=0;points=[];" parent="KgmE5demH_Q6FdKg4M9q-5" vertex="1" connectable="0">
          <mxGeometry x="-0.0741" y="2" relative="1" as="geometry">
            <mxPoint as="offset" />
          </mxGeometry>
        </mxCell>
        <mxCell id="XIxRZZfZnWlUdcHviTWb-3" value="&lt;div&gt;match&amp;nbsp;&lt;/div&gt;&lt;div&gt;found?&lt;/div&gt;" style="rhombus;whiteSpace=wrap;html=1;" parent="1" vertex="1">
          <mxGeometry x="720" y="400" width="80" height="80" as="geometry" />
        </mxCell>
        <mxCell id="XIxRZZfZnWlUdcHviTWb-9" value="_register_sb_event()" style="shape=parallelogram;perimeter=parallelogramPerimeter;whiteSpace=wrap;html=1;fixedSize=1;fillColor=#f8cecc;strokeColor=#b85450;" parent="1" vertex="1">
          <mxGeometry x="690" y="540" width="140" height="60" as="geometry" />
        </mxCell>
        <mxCell id="KgmE5demH_Q6FdKg4M9q-4" style="edgeStyle=orthogonalEdgeStyle;rounded=0;orthogonalLoop=1;jettySize=auto;html=1;entryX=1;entryY=0.5;entryDx=0;entryDy=0;" parent="1" source="37JDpWVpUxj3xj9Wz4Sn-1" target="XIxRZZfZnWlUdcHviTWb-9" edge="1">
          <mxGeometry relative="1" as="geometry" />
        </mxCell>
        <mxCell id="37JDpWVpUxj3xj9Wz4Sn-1" value="&lt;div&gt;sb_name, sb_event_id,&lt;/div&gt;&lt;div&gt;sb_event_url,&lt;/div&gt;&lt;div&gt;event_id&lt;br&gt;&lt;/div&gt;" style="shape=cube;whiteSpace=wrap;html=1;boundedLbl=1;backgroundOutline=1;darkOpacity=0.05;darkOpacity2=0.1;" parent="1" vertex="1">
          <mxGeometry x="890" y="530" width="120" height="80" as="geometry" />
        </mxCell>
        <mxCell id="KgmE5demH_Q6FdKg4M9q-7" style="edgeStyle=orthogonalEdgeStyle;rounded=0;orthogonalLoop=1;jettySize=auto;html=1;exitX=0.5;exitY=1;exitDx=0;exitDy=0;entryX=0;entryY=0.5;entryDx=0;entryDy=0;strokeWidth=3;" parent="1" source="KgmE5demH_Q6FdKg4M9q-2" target="XIxRZZfZnWlUdcHviTWb-9" edge="1">
          <mxGeometry relative="1" as="geometry">
            <Array as="points">
              <mxPoint x="595" y="570" />
            </Array>
          </mxGeometry>
        </mxCell>
        <mxCell id="KgmE5demH_Q6FdKg4M9q-2" value="_register_event()" style="shape=parallelogram;perimeter=parallelogramPerimeter;whiteSpace=wrap;html=1;fixedSize=1;fillColor=#f8cecc;strokeColor=#b85450;" parent="1" vertex="1">
          <mxGeometry x="510" y="410" width="170" height="60" as="geometry" />
        </mxCell>
        <mxCell id="7E1twf-aiWiyYaodrZ6l-2" style="edgeStyle=orthogonalEdgeStyle;rounded=0;orthogonalLoop=1;jettySize=auto;html=1;exitX=0;exitY=0;exitDx=120;exitDy=50;exitPerimeter=0;entryX=0;entryY=0.5;entryDx=0;entryDy=0;" parent="1" source="KgmE5demH_Q6FdKg4M9q-8" target="KgmE5demH_Q6FdKg4M9q-2" edge="1">
          <mxGeometry relative="1" as="geometry" />
        </mxCell>
        <mxCell id="KgmE5demH_Q6FdKg4M9q-8" value="event" style="shape=cube;whiteSpace=wrap;html=1;boundedLbl=1;backgroundOutline=1;darkOpacity=0.05;darkOpacity2=0.1;" parent="1" vertex="1">
          <mxGeometry x="350" y="390" width="120" height="80" as="geometry" />
        </mxCell>
        <mxCell id="3f5citvKsISVUxwCIeuk-1" value="sb" style="ellipse;shape=cloud;whiteSpace=wrap;html=1;fillColor=#d5e8d4;strokeColor=#82b366;" parent="1" vertex="1">
          <mxGeometry x="385" y="20" width="120" height="80" as="geometry" />
        </mxCell>
        <mxCell id="3f5citvKsISVUxwCIeuk-2" value="events_updater" style="ellipse;shape=cloud;whiteSpace=wrap;html=1;fillColor=#dae8fc;strokeColor=#6c8ebf;" parent="1" vertex="1">
          <mxGeometry x="205" y="20" width="120" height="80" as="geometry" />
        </mxCell>
        <mxCell id="F73bgWnbjuSb2d5h82YR-2" value="&lt;font style=&quot;font-size: 20px;&quot;&gt;1&lt;/font&gt;" style="edgeStyle=orthogonalEdgeStyle;rounded=0;orthogonalLoop=1;jettySize=auto;html=1;entryX=0;entryY=0.5;entryDx=0;entryDy=0;strokeWidth=3;" parent="1" source="3f5citvKsISVUxwCIeuk-6" target="F73bgWnbjuSb2d5h82YR-1" edge="1">
          <mxGeometry relative="1" as="geometry" />
        </mxCell>
        <mxCell id="NjzHuf-6U7BauVV8IOxd-5" style="edgeStyle=orthogonalEdgeStyle;rounded=0;orthogonalLoop=1;jettySize=auto;html=1;exitX=0.5;exitY=1;exitDx=0;exitDy=0;entryX=0;entryY=0.5;entryDx=0;entryDy=0;strokeWidth=3;" parent="1" source="3f5citvKsISVUxwCIeuk-6" target="VwaiQFRow1Z-0odvICsz-5" edge="1">
          <mxGeometry relative="1" as="geometry">
            <Array as="points">
              <mxPoint x="160" y="920" />
            </Array>
          </mxGeometry>
        </mxCell>
        <mxCell id="mwF6YOh2PZlSq1mBTz3_-4" value="&lt;font style=&quot;font-size: 20px;&quot;&gt;2&lt;/font&gt;" style="edgeLabel;html=1;align=center;verticalAlign=middle;resizable=0;points=[];" parent="NjzHuf-6U7BauVV8IOxd-5" vertex="1" connectable="0">
          <mxGeometry x="0.2241" y="4" relative="1" as="geometry">
            <mxPoint x="1" as="offset" />
          </mxGeometry>
        </mxCell>
        <mxCell id="mwF6YOh2PZlSq1mBTz3_-2" style="edgeStyle=orthogonalEdgeStyle;rounded=0;orthogonalLoop=1;jettySize=auto;html=1;exitX=0.5;exitY=1;exitDx=0;exitDy=0;entryX=0;entryY=0.5;entryDx=0;entryDy=0;strokeWidth=3;" parent="1" source="3f5citvKsISVUxwCIeuk-6" target="mwF6YOh2PZlSq1mBTz3_-1" edge="1">
          <mxGeometry relative="1" as="geometry">
            <Array as="points">
              <mxPoint x="142" y="1030" />
            </Array>
          </mxGeometry>
        </mxCell>
        <mxCell id="mwF6YOh2PZlSq1mBTz3_-5" value="&lt;font style=&quot;font-size: 20px;&quot;&gt;3&lt;/font&gt;" style="edgeLabel;html=1;align=center;verticalAlign=middle;resizable=0;points=[];" parent="mwF6YOh2PZlSq1mBTz3_-2" vertex="1" connectable="0">
          <mxGeometry x="0.3969" y="-2" relative="1" as="geometry">
            <mxPoint as="offset" />
          </mxGeometry>
        </mxCell>
        <mxCell id="3f5citvKsISVUxwCIeuk-6" value="update_or_register_event_selections()" style="shape=parallelogram;perimeter=parallelogramPerimeter;whiteSpace=wrap;html=1;fixedSize=1;fillColor=#dae8fc;strokeColor=#6c8ebf;" parent="1" vertex="1">
          <mxGeometry x="20" y="660" width="245" height="60" as="geometry" />
        </mxCell>
        <mxCell id="NjzHuf-6U7BauVV8IOxd-4" style="edgeStyle=orthogonalEdgeStyle;rounded=0;orthogonalLoop=1;jettySize=auto;html=1;exitX=0.5;exitY=1;exitDx=0;exitDy=0;" parent="1" source="F73bgWnbjuSb2d5h82YR-1" target="F73bgWnbjuSb2d5h82YR-3" edge="1">
          <mxGeometry relative="1" as="geometry" />
        </mxCell>
        <mxCell id="F73bgWnbjuSb2d5h82YR-1" value="get_events_url()" style="shape=parallelogram;perimeter=parallelogramPerimeter;whiteSpace=wrap;html=1;fixedSize=1;fillColor=#f8cecc;strokeColor=#b85450;" parent="1" vertex="1">
          <mxGeometry x="370" y="660" width="160" height="60" as="geometry" />
        </mxCell>
        <mxCell id="NjzHuf-6U7BauVV8IOxd-6" style="edgeStyle=orthogonalEdgeStyle;rounded=0;orthogonalLoop=1;jettySize=auto;html=1;exitX=0;exitY=0;exitDx=70;exitDy=80;exitPerimeter=0;entryX=0.5;entryY=0;entryDx=0;entryDy=0;" parent="1" source="F73bgWnbjuSb2d5h82YR-3" target="VwaiQFRow1Z-0odvICsz-5" edge="1">
          <mxGeometry relative="1" as="geometry" />
        </mxCell>
        <mxCell id="F73bgWnbjuSb2d5h82YR-3" value="urls" style="shape=cube;whiteSpace=wrap;html=1;boundedLbl=1;backgroundOutline=1;darkOpacity=0.05;darkOpacity2=0.1;" parent="1" vertex="1">
          <mxGeometry x="390" y="760" width="120" height="80" as="geometry" />
        </mxCell>
        <mxCell id="NjzHuf-6U7BauVV8IOxd-3" style="edgeStyle=orthogonalEdgeStyle;rounded=0;orthogonalLoop=1;jettySize=auto;html=1;exitX=0;exitY=0;exitDx=120;exitDy=50;exitPerimeter=0;entryX=0.5;entryY=0;entryDx=0;entryDy=0;" parent="1" source="NjzHuf-6U7BauVV8IOxd-1" target="F73bgWnbjuSb2d5h82YR-1" edge="1">
          <mxGeometry relative="1" as="geometry" />
        </mxCell>
        <mxCell id="NjzHuf-6U7BauVV8IOxd-1" value="sb" style="shape=cube;whiteSpace=wrap;html=1;boundedLbl=1;backgroundOutline=1;darkOpacity=0.05;darkOpacity2=0.1;" parent="1" vertex="1">
          <mxGeometry x="260" y="560" width="120" height="80" as="geometry" />
        </mxCell>
        <mxCell id="do2GH6efqfmHbVuyZG5z-1" style="edgeStyle=orthogonalEdgeStyle;rounded=0;orthogonalLoop=1;jettySize=auto;html=1;exitX=0;exitY=0;exitDx=10;exitDy=70;exitPerimeter=0;entryX=0.5;entryY=0;entryDx=0;entryDy=0;dashed=1;" parent="1" source="NjzHuf-6U7BauVV8IOxd-7" target="mwF6YOh2PZlSq1mBTz3_-1" edge="1">
          <mxGeometry relative="1" as="geometry" />
        </mxCell>
        <mxCell id="NjzHuf-6U7BauVV8IOxd-7" value="selections" style="shape=cube;whiteSpace=wrap;html=1;boundedLbl=1;backgroundOutline=1;darkOpacity=0.05;darkOpacity2=0.1;" parent="1" vertex="1">
          <mxGeometry x="570" y="880" width="120" height="80" as="geometry" />
        </mxCell>
        <mxCell id="NjzHuf-6U7BauVV8IOxd-9" value="&lt;div&gt;&lt;b&gt;selection:&lt;/b&gt;&lt;/div&gt;&lt;div&gt;id, name, link,&lt;/div&gt;&lt;div&gt;market_id, odds&lt;/div&gt;" style="ellipse;whiteSpace=wrap;html=1;" parent="1" vertex="1">
          <mxGeometry x="565" y="770" width="120" height="80" as="geometry" />
        </mxCell>
        <mxCell id="do2GH6efqfmHbVuyZG5z-3" style="edgeStyle=orthogonalEdgeStyle;rounded=0;orthogonalLoop=1;jettySize=auto;html=1;entryX=0;entryY=0.5;entryDx=0;entryDy=0;strokeWidth=3;" parent="1" source="mwF6YOh2PZlSq1mBTz3_-1" target="do2GH6efqfmHbVuyZG5z-2" edge="1">
          <mxGeometry relative="1" as="geometry" />
        </mxCell>
        <mxCell id="mwF6YOh2PZlSq1mBTz3_-1" value="update_or_register_event_selection()" style="shape=parallelogram;perimeter=parallelogramPerimeter;whiteSpace=wrap;html=1;fixedSize=1;fillColor=#f8cecc;strokeColor=#b85450;" parent="1" vertex="1">
          <mxGeometry x="335" y="1000" width="250" height="60" as="geometry" />
        </mxCell>
        <mxCell id="0Z8dkhgDmU7wRRAgmXaG-2" style="edgeStyle=orthogonalEdgeStyle;rounded=0;orthogonalLoop=1;jettySize=auto;html=1;entryX=0;entryY=0.5;entryDx=0;entryDy=0;strokeWidth=3;" parent="1" source="do2GH6efqfmHbVuyZG5z-2" target="0Z8dkhgDmU7wRRAgmXaG-1" edge="1">
          <mxGeometry relative="1" as="geometry" />
        </mxCell>
        <mxCell id="do2GH6efqfmHbVuyZG5z-2" value="_sb_selection_exists()" style="shape=parallelogram;perimeter=parallelogramPerimeter;whiteSpace=wrap;html=1;fixedSize=1;fillColor=#f8cecc;strokeColor=#b85450;" parent="1" vertex="1">
          <mxGeometry x="680" y="1000" width="180" height="60" as="geometry" />
        </mxCell>
        <mxCell id="do2GH6efqfmHbVuyZG5z-5" style="edgeStyle=orthogonalEdgeStyle;rounded=0;orthogonalLoop=1;jettySize=auto;html=1;dashed=1;" parent="1" source="do2GH6efqfmHbVuyZG5z-4" target="do2GH6efqfmHbVuyZG5z-2" edge="1">
          <mxGeometry relative="1" as="geometry" />
        </mxCell>
        <mxCell id="do2GH6efqfmHbVuyZG5z-4" value="sb_selection_id" style="shape=cube;whiteSpace=wrap;html=1;boundedLbl=1;backgroundOutline=1;darkOpacity=0.05;darkOpacity2=0.1;" parent="1" vertex="1">
          <mxGeometry x="710" y="880" width="120" height="80" as="geometry" />
        </mxCell>
        <mxCell id="0Z8dkhgDmU7wRRAgmXaG-1" value="exists?" style="rhombus;whiteSpace=wrap;html=1;" parent="1" vertex="1">
          <mxGeometry x="960" y="990" width="80" height="80" as="geometry" />
        </mxCell>
        <mxCell id="0Z8dkhgDmU7wRRAgmXaG-6" value="" style="edgeStyle=orthogonalEdgeStyle;rounded=0;orthogonalLoop=1;jettySize=auto;html=1;exitX=0.5;exitY=0;exitDx=0;exitDy=0;strokeWidth=3;" parent="1" source="0Z8dkhgDmU7wRRAgmXaG-1" target="0Z8dkhgDmU7wRRAgmXaG-5" edge="1">
          <mxGeometry relative="1" as="geometry">
            <mxPoint x="999.5454545454545" y="900.0000000000002" as="targetPoint" />
            <mxPoint x="1000" y="990" as="sourcePoint" />
          </mxGeometry>
        </mxCell>
        <mxCell id="0Z8dkhgDmU7wRRAgmXaG-7" value="&lt;font style=&quot;font-size: 20px;&quot;&gt;yes&lt;/font&gt;" style="edgeLabel;html=1;align=center;verticalAlign=middle;resizable=0;points=[];" parent="0Z8dkhgDmU7wRRAgmXaG-6" vertex="1" connectable="0">
          <mxGeometry x="-0.039" y="-5" relative="1" as="geometry">
            <mxPoint as="offset" />
          </mxGeometry>
        </mxCell>
        <mxCell id="0Z8dkhgDmU7wRRAgmXaG-5" value="_update_odds()" style="shape=parallelogram;perimeter=parallelogramPerimeter;whiteSpace=wrap;html=1;fixedSize=1;fillColor=#f8cecc;strokeColor=#b85450;" parent="1" vertex="1">
          <mxGeometry x="920" y="850" width="160" height="60" as="geometry" />
        </mxCell>
        <mxCell id="0Z8dkhgDmU7wRRAgmXaG-10" value="" style="edgeStyle=orthogonalEdgeStyle;rounded=0;orthogonalLoop=1;jettySize=auto;html=1;exitX=1;exitY=0.5;exitDx=0;exitDy=0;entryX=0;entryY=0.5;entryDx=0;entryDy=0;strokeWidth=3;" parent="1" source="2BChi0avzNCMFJGdp_sq-40" target="0Z8dkhgDmU7wRRAgmXaG-8" edge="1">
          <mxGeometry relative="1" as="geometry">
            <mxPoint x="670" y="200" as="sourcePoint" />
            <mxPoint x="950" y="200" as="targetPoint" />
          </mxGeometry>
        </mxCell>
        <mxCell id="0Z8dkhgDmU7wRRAgmXaG-8" value="_sb_event_exists()" style="shape=parallelogram;perimeter=parallelogramPerimeter;whiteSpace=wrap;html=1;fixedSize=1;fillColor=#f8cecc;strokeColor=#b85450;" parent="1" vertex="1">
          <mxGeometry x="730" y="170" width="190" height="60" as="geometry" />
        </mxCell>
        <mxCell id="0Z8dkhgDmU7wRRAgmXaG-12" style="edgeStyle=orthogonalEdgeStyle;rounded=0;orthogonalLoop=1;jettySize=auto;html=1;exitX=0.522;exitY=1.005;exitDx=0;exitDy=0;exitPerimeter=0;entryX=0.5;entryY=0;entryDx=0;entryDy=0;dashed=1;" parent="1" source="0Z8dkhgDmU7wRRAgmXaG-11" target="0Z8dkhgDmU7wRRAgmXaG-8" edge="1">
          <mxGeometry relative="1" as="geometry" />
        </mxCell>
        <mxCell id="0Z8dkhgDmU7wRRAgmXaG-11" value="sb_event_id" style="shape=cube;whiteSpace=wrap;html=1;boundedLbl=1;backgroundOutline=1;darkOpacity=0.05;darkOpacity2=0.1;" parent="1" vertex="1">
          <mxGeometry x="760" y="50" width="120" height="80" as="geometry" />
        </mxCell>
        <mxCell id="0Z8dkhgDmU7wRRAgmXaG-14" style="edgeStyle=orthogonalEdgeStyle;rounded=0;orthogonalLoop=1;jettySize=auto;html=1;entryX=0;entryY=0.5;entryDx=0;entryDy=0;" parent="1" source="0Z8dkhgDmU7wRRAgmXaG-13" target="0Z8dkhgDmU7wRRAgmXaG-5" edge="1">
          <mxGeometry relative="1" as="geometry" />
        </mxCell>
        <mxCell id="0Z8dkhgDmU7wRRAgmXaG-13" value="selection" style="shape=cube;whiteSpace=wrap;html=1;boundedLbl=1;backgroundOutline=1;darkOpacity=0.05;darkOpacity2=0.1;" parent="1" vertex="1">
          <mxGeometry x="765" y="760" width="120" height="80" as="geometry" />
        </mxCell>
        <mxCell id="m54iEm6xic8nZ39133o1-3" value="&lt;div style=&quot;font-size: 20px;&quot;&gt;&lt;font style=&quot;font-size: 20px;&quot;&gt;no&lt;/font&gt;&lt;/div&gt;" style="edgeStyle=orthogonalEdgeStyle;rounded=0;orthogonalLoop=1;jettySize=auto;html=1;exitX=0.5;exitY=0;exitDx=0;exitDy=0;strokeWidth=3;" parent="1" source="BrXIoayzq57UqCMAiOlX-7" target="m54iEm6xic8nZ39133o1-5" edge="1">
          <mxGeometry relative="1" as="geometry">
            <mxPoint x="1170" y="1029.6153846153845" as="targetPoint" />
            <mxPoint x="1040" y="1030" as="sourcePoint" />
          </mxGeometry>
        </mxCell>
        <mxCell id="BrXIoayzq57UqCMAiOlX-10" style="edgeStyle=orthogonalEdgeStyle;rounded=0;orthogonalLoop=1;jettySize=auto;html=1;exitX=1;exitY=0.75;exitDx=0;exitDy=0;strokeWidth=3;entryX=0.25;entryY=0;entryDx=0;entryDy=0;" parent="1" source="m54iEm6xic8nZ39133o1-5" target="v0ZEcLec8fmo0TBDkzDk-2" edge="1">
          <mxGeometry relative="1" as="geometry" />
        </mxCell>
        <mxCell id="m54iEm6xic8nZ39133o1-5" value="_register_selection()" style="shape=parallelogram;perimeter=parallelogramPerimeter;whiteSpace=wrap;html=1;fixedSize=1;fillColor=#f8cecc;strokeColor=#b85450;" parent="1" vertex="1">
          <mxGeometry x="1310" y="830" width="180" height="60" as="geometry" />
        </mxCell>
        <mxCell id="v0ZEcLec8fmo0TBDkzDk-2" value="_register_sb_selection()" style="shape=parallelogram;perimeter=parallelogramPerimeter;whiteSpace=wrap;html=1;fixedSize=1;fillColor=#f8cecc;strokeColor=#b85450;" parent="1" vertex="1">
          <mxGeometry x="1510" y="1000" width="170" height="60" as="geometry" />
        </mxCell>
        <mxCell id="z6LA2HqI1E6bgaBkzwFg-1" style="edgeStyle=orthogonalEdgeStyle;rounded=0;orthogonalLoop=1;jettySize=auto;html=1;entryX=1;entryY=0.5;entryDx=0;entryDy=0;exitX=0;exitY=0;exitDx=70;exitDy=80;exitPerimeter=0;dashed=1;" parent="1" source="OcziOUEe0_3Wn34Qf_Dp-1" target="m54iEm6xic8nZ39133o1-5" edge="1">
          <mxGeometry relative="1" as="geometry">
            <Array as="points">
              <mxPoint x="1570" y="860" />
            </Array>
          </mxGeometry>
        </mxCell>
        <mxCell id="OcziOUEe0_3Wn34Qf_Dp-1" value="&lt;div&gt;selection_id,&lt;/div&gt;&lt;div&gt;name, link,&lt;br&gt;&lt;/div&gt;&lt;div&gt;&amp;nbsp;market_id,&lt;/div&gt;&lt;div&gt;event_id&lt;br&gt;&lt;/div&gt;" style="shape=cube;whiteSpace=wrap;html=1;boundedLbl=1;backgroundOutline=1;darkOpacity=0.05;darkOpacity2=0.1;" parent="1" vertex="1">
          <mxGeometry x="1500" y="740" width="120" height="80" as="geometry" />
        </mxCell>
        <mxCell id="7qvn0NyI3KhB0ufUavS2-2" style="edgeStyle=orthogonalEdgeStyle;rounded=0;orthogonalLoop=1;jettySize=auto;html=1;entryX=0.75;entryY=0;entryDx=0;entryDy=0;dashed=1;" parent="1" source="z6LA2HqI1E6bgaBkzwFg-2" target="v0ZEcLec8fmo0TBDkzDk-2" edge="1">
          <mxGeometry relative="1" as="geometry" />
        </mxCell>
        <mxCell id="z6LA2HqI1E6bgaBkzwFg-2" value="&lt;div&gt;sb_name,&lt;/div&gt;&lt;div&gt;sb_selection_id,&lt;/div&gt;&lt;div&gt;sb_odds,&lt;/div&gt;&lt;div&gt;selection_id&lt;br&gt;&lt;/div&gt;" style="shape=cube;whiteSpace=wrap;html=1;boundedLbl=1;backgroundOutline=1;darkOpacity=0.05;darkOpacity2=0.1;" parent="1" vertex="1">
          <mxGeometry x="1570" y="870" width="120" height="80" as="geometry" />
        </mxCell>
        <mxCell id="BrXIoayzq57UqCMAiOlX-2" value="" style="edgeStyle=orthogonalEdgeStyle;rounded=0;orthogonalLoop=1;jettySize=auto;html=1;exitX=1;exitY=0.5;exitDx=0;exitDy=0;strokeWidth=3;" parent="1" source="0Z8dkhgDmU7wRRAgmXaG-1" target="BrXIoayzq57UqCMAiOlX-1" edge="1">
          <mxGeometry relative="1" as="geometry">
            <mxPoint x="1320" y="1030" as="targetPoint" />
            <mxPoint x="1040" y="1030" as="sourcePoint" />
          </mxGeometry>
        </mxCell>
        <mxCell id="BrXIoayzq57UqCMAiOlX-3" value="&lt;font style=&quot;font-size: 20px;&quot;&gt;no&lt;/font&gt;" style="edgeLabel;html=1;align=center;verticalAlign=middle;resizable=0;points=[];" parent="BrXIoayzq57UqCMAiOlX-2" vertex="1" connectable="0">
          <mxGeometry x="-0.058" y="-1" relative="1" as="geometry">
            <mxPoint as="offset" />
          </mxGeometry>
        </mxCell>
        <mxCell id="BrXIoayzq57UqCMAiOlX-1" value="_match_selection()" style="shape=parallelogram;perimeter=parallelogramPerimeter;whiteSpace=wrap;html=1;fixedSize=1;fillColor=#dae8fc;strokeColor=#6c8ebf;" parent="1" vertex="1">
          <mxGeometry x="1120" y="1000" width="140" height="60" as="geometry" />
        </mxCell>
        <mxCell id="BrXIoayzq57UqCMAiOlX-5" style="edgeStyle=orthogonalEdgeStyle;rounded=0;orthogonalLoop=1;jettySize=auto;html=1;" parent="1" source="BrXIoayzq57UqCMAiOlX-4" target="BrXIoayzq57UqCMAiOlX-1" edge="1">
          <mxGeometry relative="1" as="geometry" />
        </mxCell>
        <mxCell id="BrXIoayzq57UqCMAiOlX-4" value="&lt;font color=&quot;#3399ff&quot;&gt;sb_selection&lt;/font&gt;, &lt;font color=&quot;#ea6b66&quot;&gt;potential_selections&lt;/font&gt;" style="shape=cube;whiteSpace=wrap;html=1;boundedLbl=1;backgroundOutline=1;darkOpacity=0.05;darkOpacity2=0.1;" parent="1" vertex="1">
          <mxGeometry x="1115" y="880" width="150" height="80" as="geometry" />
        </mxCell>
        <mxCell id="BrXIoayzq57UqCMAiOlX-6" value="" style="edgeStyle=orthogonalEdgeStyle;rounded=0;orthogonalLoop=1;jettySize=auto;html=1;exitX=1;exitY=0.5;exitDx=0;exitDy=0;strokeWidth=3;" parent="1" source="BrXIoayzq57UqCMAiOlX-1" target="BrXIoayzq57UqCMAiOlX-7" edge="1">
          <mxGeometry relative="1" as="geometry">
            <mxPoint x="1400" y="890" as="targetPoint" />
            <mxPoint x="1250" y="1030" as="sourcePoint" />
          </mxGeometry>
        </mxCell>
        <mxCell id="BrXIoayzq57UqCMAiOlX-8" style="edgeStyle=orthogonalEdgeStyle;rounded=0;orthogonalLoop=1;jettySize=auto;html=1;exitX=1;exitY=0.5;exitDx=0;exitDy=0;strokeWidth=3;" parent="1" source="BrXIoayzq57UqCMAiOlX-7" target="v0ZEcLec8fmo0TBDkzDk-2" edge="1">
          <mxGeometry relative="1" as="geometry" />
        </mxCell>
        <mxCell id="BrXIoayzq57UqCMAiOlX-9" value="&lt;font style=&quot;font-size: 20px;&quot;&gt;yes&lt;/font&gt;" style="edgeLabel;html=1;align=center;verticalAlign=middle;resizable=0;points=[];" parent="BrXIoayzq57UqCMAiOlX-8" vertex="1" connectable="0">
          <mxGeometry x="-0.32" y="4" relative="1" as="geometry">
            <mxPoint as="offset" />
          </mxGeometry>
        </mxCell>
        <mxCell id="BrXIoayzq57UqCMAiOlX-7" value="&lt;div&gt;match&lt;/div&gt;&lt;div&gt;found?&lt;br&gt;&lt;/div&gt;" style="rhombus;whiteSpace=wrap;html=1;" parent="1" vertex="1">
          <mxGeometry x="1360" y="990" width="80" height="80" as="geometry" />
        </mxCell>
      </root>
    </mxGraphModel>
  </diagram>
  <diagram id="A0WChqkghh2HYbwgR8ds" name="Page-4">
    <mxGraphModel dx="1993" dy="1275" grid="0" gridSize="10" guides="1" tooltips="1" connect="1" arrows="1" fold="1" page="0" pageScale="1" pageWidth="850" pageHeight="1100" math="0" shadow="0">
      <root>
        <mxCell id="0" />
        <mxCell id="1" parent="0" />
        <mxCell id="8PRVQj8wnvPL2pMXrXUX-56" value="" style="rounded=1;whiteSpace=wrap;html=1;fontSize=16;fillColor=#dae8fc;strokeColor=#6c8ebf;" vertex="1" parent="1">
          <mxGeometry x="-673.5" y="530" width="420.5" height="268" as="geometry" />
        </mxCell>
        <mxCell id="8PRVQj8wnvPL2pMXrXUX-41" value="" style="rounded=1;whiteSpace=wrap;html=1;fontSize=16;fillColor=#e1d5e7;strokeColor=#9673a6;" vertex="1" parent="1">
          <mxGeometry x="-91" y="189" width="341" height="218" as="geometry" />
        </mxCell>
        <mxCell id="8PRVQj8wnvPL2pMXrXUX-38" value="" style="rounded=1;whiteSpace=wrap;html=1;fontSize=16;fillColor=#f8cecc;strokeColor=#b85450;" vertex="1" parent="1">
          <mxGeometry x="-64" y="-65" width="278.5" height="194" as="geometry" />
        </mxCell>
        <mxCell id="8PRVQj8wnvPL2pMXrXUX-37" value="" style="rounded=1;whiteSpace=wrap;html=1;fontSize=16;fillColor=#fff2cc;strokeColor=#d6b656;" vertex="1" parent="1">
          <mxGeometry x="-673.5" y="58" width="413" height="340" as="geometry" />
        </mxCell>
        <mxCell id="8PRVQj8wnvPL2pMXrXUX-1" value="&lt;div&gt;SportsBook&lt;/div&gt;" style="rounded=0;whiteSpace=wrap;html=1;fontSize=16;" vertex="1" parent="1">
          <mxGeometry x="13.5" y="-40" width="120" height="60" as="geometry" />
        </mxCell>
        <mxCell id="8PRVQj8wnvPL2pMXrXUX-8" style="edgeStyle=none;curved=1;rounded=0;orthogonalLoop=1;jettySize=auto;html=1;exitX=0.5;exitY=1;exitDx=0;exitDy=0;fontSize=12;startSize=8;endSize=8;entryX=0.5;entryY=0;entryDx=0;entryDy=0;" edge="1" parent="1" source="8PRVQj8wnvPL2pMXrXUX-10" target="8PRVQj8wnvPL2pMXrXUX-6">
          <mxGeometry relative="1" as="geometry">
            <mxPoint x="39" y="208" as="targetPoint" />
          </mxGeometry>
        </mxCell>
        <mxCell id="8PRVQj8wnvPL2pMXrXUX-2" value="yieldEvents" style="shape=parallelogram;perimeter=parallelogramPerimeter;whiteSpace=wrap;html=1;fixedSize=1;fontSize=16;" vertex="1" parent="1">
          <mxGeometry x="-54" y="53" width="120" height="60" as="geometry" />
        </mxCell>
        <mxCell id="8PRVQj8wnvPL2pMXrXUX-47" style="edgeStyle=none;curved=1;rounded=0;orthogonalLoop=1;jettySize=auto;html=1;exitX=0.5;exitY=1;exitDx=0;exitDy=0;entryX=0.5;entryY=0;entryDx=0;entryDy=0;fontSize=12;startSize=8;endSize=8;endArrow=none;endFill=0;" edge="1" parent="1" source="8PRVQj8wnvPL2pMXrXUX-3" target="8PRVQj8wnvPL2pMXrXUX-46">
          <mxGeometry relative="1" as="geometry" />
        </mxCell>
        <mxCell id="8PRVQj8wnvPL2pMXrXUX-3" value="yieldOdds" style="shape=parallelogram;perimeter=parallelogramPerimeter;whiteSpace=wrap;html=1;fixedSize=1;fontSize=16;" vertex="1" parent="1">
          <mxGeometry x="81" y="53" width="120" height="60" as="geometry" />
        </mxCell>
        <mxCell id="8PRVQj8wnvPL2pMXrXUX-7" style="edgeStyle=none;curved=1;rounded=0;orthogonalLoop=1;jettySize=auto;html=1;exitX=0.5;exitY=0;exitDx=0;exitDy=0;entryX=0.5;entryY=1;entryDx=0;entryDy=0;fontSize=12;startSize=8;endSize=8;" edge="1" parent="1" source="8PRVQj8wnvPL2pMXrXUX-6" target="8PRVQj8wnvPL2pMXrXUX-2">
          <mxGeometry relative="1" as="geometry" />
        </mxCell>
        <mxCell id="8PRVQj8wnvPL2pMXrXUX-12" style="edgeStyle=none;curved=1;rounded=0;orthogonalLoop=1;jettySize=auto;html=1;exitX=0;exitY=0.5;exitDx=0;exitDy=0;fontSize=12;startSize=8;endSize=8;" edge="1" parent="1" source="8PRVQj8wnvPL2pMXrXUX-14" target="8PRVQj8wnvPL2pMXrXUX-11">
          <mxGeometry relative="1" as="geometry" />
        </mxCell>
        <mxCell id="8PRVQj8wnvPL2pMXrXUX-18" style="edgeStyle=none;curved=1;rounded=0;orthogonalLoop=1;jettySize=auto;html=1;exitX=0;exitY=0.5;exitDx=0;exitDy=0;entryX=1;entryY=0.5;entryDx=0;entryDy=0;fontSize=12;startSize=8;endSize=8;endArrow=none;endFill=0;" edge="1" parent="1" source="8PRVQj8wnvPL2pMXrXUX-6" target="8PRVQj8wnvPL2pMXrXUX-17">
          <mxGeometry relative="1" as="geometry" />
        </mxCell>
        <mxCell id="8PRVQj8wnvPL2pMXrXUX-6" value="handleSBEvent" style="shape=parallelogram;perimeter=parallelogramPerimeter;whiteSpace=wrap;html=1;fixedSize=1;fontSize=16;" vertex="1" parent="1">
          <mxGeometry x="-72.5" y="202" width="157" height="60" as="geometry" />
        </mxCell>
        <mxCell id="8PRVQj8wnvPL2pMXrXUX-9" value="" style="edgeStyle=none;curved=1;rounded=0;orthogonalLoop=1;jettySize=auto;html=1;exitX=0.5;exitY=1;exitDx=0;exitDy=0;entryX=0.5;entryY=0;entryDx=0;entryDy=0;fontSize=12;startSize=8;endSize=8;endArrow=none;endFill=0;" edge="1" parent="1" source="8PRVQj8wnvPL2pMXrXUX-2" target="8PRVQj8wnvPL2pMXrXUX-10">
          <mxGeometry relative="1" as="geometry">
            <mxPoint x="36" y="113" as="sourcePoint" />
            <mxPoint x="36" y="202" as="targetPoint" />
          </mxGeometry>
        </mxCell>
        <mxCell id="8PRVQj8wnvPL2pMXrXUX-10" value="Event" style="ellipse;whiteSpace=wrap;html=1;fontSize=16;" vertex="1" parent="1">
          <mxGeometry x="17" y="133" width="70" height="50" as="geometry" />
        </mxCell>
        <mxCell id="8PRVQj8wnvPL2pMXrXUX-24" style="edgeStyle=none;curved=1;rounded=0;orthogonalLoop=1;jettySize=auto;html=1;exitX=1;exitY=0.25;exitDx=0;exitDy=0;entryX=0;entryY=0.5;entryDx=0;entryDy=0;fontSize=12;startSize=8;endSize=8;endArrow=none;endFill=0;" edge="1" parent="1" source="8PRVQj8wnvPL2pMXrXUX-11" target="8PRVQj8wnvPL2pMXrXUX-23">
          <mxGeometry relative="1" as="geometry" />
        </mxCell>
        <mxCell id="8PRVQj8wnvPL2pMXrXUX-11" value="matchOrRegisterEvent" style="shape=parallelogram;perimeter=parallelogramPerimeter;whiteSpace=wrap;html=1;fixedSize=1;fontSize=16;" vertex="1" parent="1">
          <mxGeometry x="-488" y="202" width="213" height="60" as="geometry" />
        </mxCell>
        <mxCell id="8PRVQj8wnvPL2pMXrXUX-15" value="" style="edgeStyle=none;curved=1;rounded=0;orthogonalLoop=1;jettySize=auto;html=1;exitX=0;exitY=0.5;exitDx=0;exitDy=0;fontSize=12;startSize=8;endSize=8;endArrow=none;endFill=0;" edge="1" parent="1" source="8PRVQj8wnvPL2pMXrXUX-6" target="8PRVQj8wnvPL2pMXrXUX-14">
          <mxGeometry relative="1" as="geometry">
            <mxPoint x="-62" y="232" as="sourcePoint" />
            <mxPoint x="-285" y="232" as="targetPoint" />
          </mxGeometry>
        </mxCell>
        <mxCell id="8PRVQj8wnvPL2pMXrXUX-14" value="&lt;div&gt;EventMatcher&lt;/div&gt;" style="ellipse;whiteSpace=wrap;html=1;fontSize=16;" vertex="1" parent="1">
          <mxGeometry x="-240" y="295" width="132" height="50" as="geometry" />
        </mxCell>
        <mxCell id="8PRVQj8wnvPL2pMXrXUX-19" style="edgeStyle=none;curved=1;rounded=0;orthogonalLoop=1;jettySize=auto;html=1;exitX=0;exitY=0.5;exitDx=0;exitDy=0;entryX=1;entryY=0.5;entryDx=0;entryDy=0;fontSize=12;startSize=8;endSize=8;" edge="1" parent="1" source="8PRVQj8wnvPL2pMXrXUX-17" target="8PRVQj8wnvPL2pMXrXUX-11">
          <mxGeometry relative="1" as="geometry" />
        </mxCell>
        <mxCell id="8PRVQj8wnvPL2pMXrXUX-17" value="&lt;div&gt;Event&lt;/div&gt;" style="ellipse;whiteSpace=wrap;html=1;fontSize=16;" vertex="1" parent="1">
          <mxGeometry x="-256" y="235" width="132" height="50" as="geometry" />
        </mxCell>
        <mxCell id="8PRVQj8wnvPL2pMXrXUX-21" style="edgeStyle=none;curved=1;rounded=0;orthogonalLoop=1;jettySize=auto;html=1;fontSize=12;startSize=8;endSize=8;startArrow=classic;startFill=1;" edge="1" parent="1" source="8PRVQj8wnvPL2pMXrXUX-20" target="8PRVQj8wnvPL2pMXrXUX-11">
          <mxGeometry relative="1" as="geometry" />
        </mxCell>
        <mxCell id="8PRVQj8wnvPL2pMXrXUX-20" value="" style="shape=cylinder3;whiteSpace=wrap;html=1;boundedLbl=1;backgroundOutline=1;size=15;fontSize=16;" vertex="1" parent="1">
          <mxGeometry x="-631" y="192" width="60" height="80" as="geometry" />
        </mxCell>
        <mxCell id="8PRVQj8wnvPL2pMXrXUX-25" style="edgeStyle=none;curved=1;rounded=0;orthogonalLoop=1;jettySize=auto;html=1;exitX=1;exitY=0.5;exitDx=0;exitDy=0;fontSize=12;startSize=8;endSize=8;" edge="1" parent="1" source="8PRVQj8wnvPL2pMXrXUX-23" target="8PRVQj8wnvPL2pMXrXUX-6">
          <mxGeometry relative="1" as="geometry" />
        </mxCell>
        <mxCell id="8PRVQj8wnvPL2pMXrXUX-23" value="&lt;div&gt;UnifiedEventIDMap&lt;/div&gt;" style="ellipse;whiteSpace=wrap;html=1;fontSize=16;" vertex="1" parent="1">
          <mxGeometry x="-256" y="178" width="164" height="50" as="geometry" />
        </mxCell>
        <mxCell id="8PRVQj8wnvPL2pMXrXUX-26" value="Aggregator" style="rounded=0;whiteSpace=wrap;html=1;fontSize=16;" vertex="1" parent="1">
          <mxGeometry x="-45" y="327" width="120" height="60" as="geometry" />
        </mxCell>
        <mxCell id="8PRVQj8wnvPL2pMXrXUX-52" style="edgeStyle=none;curved=1;rounded=0;orthogonalLoop=1;jettySize=auto;html=1;entryX=0.5;entryY=1;entryDx=0;entryDy=0;fontSize=12;startSize=8;endSize=8;exitX=0.5;exitY=0;exitDx=0;exitDy=0;" edge="1" parent="1" source="8PRVQj8wnvPL2pMXrXUX-53" target="8PRVQj8wnvPL2pMXrXUX-57">
          <mxGeometry relative="1" as="geometry">
            <mxPoint x="-213" y="602" as="sourcePoint" />
          </mxGeometry>
        </mxCell>
        <mxCell id="8PRVQj8wnvPL2pMXrXUX-28" value="translater" style="shape=parallelogram;perimeter=parallelogramPerimeter;whiteSpace=wrap;html=1;fixedSize=1;fontSize=16;" vertex="1" parent="1">
          <mxGeometry x="100.5" y="334" width="120" height="60" as="geometry" />
        </mxCell>
        <mxCell id="8PRVQj8wnvPL2pMXrXUX-29" value="DB" style="rounded=0;whiteSpace=wrap;html=1;fontSize=16;" vertex="1" parent="1">
          <mxGeometry x="-551" y="91" width="120" height="60" as="geometry" />
        </mxCell>
        <mxCell id="8PRVQj8wnvPL2pMXrXUX-33" value="&lt;div&gt;map between SB specific and unified EventID&lt;/div&gt;&lt;div&gt;MarketIDs&lt;/div&gt;&lt;div&gt;SelectionIDs&lt;br&gt;&lt;/div&gt;" style="ellipse;shape=cloud;whiteSpace=wrap;html=1;fontSize=16;" vertex="1" parent="1">
          <mxGeometry x="-269.5" y="-80" width="173" height="224" as="geometry" />
        </mxCell>
        <mxCell id="8PRVQj8wnvPL2pMXrXUX-34" style="edgeStyle=none;curved=1;rounded=0;orthogonalLoop=1;jettySize=auto;html=1;exitX=0.5;exitY=0;exitDx=0;exitDy=0;entryX=0.55;entryY=0.95;entryDx=0;entryDy=0;entryPerimeter=0;fontSize=12;startSize=8;endSize=8;dashed=1;" edge="1" parent="1" source="8PRVQj8wnvPL2pMXrXUX-23" target="8PRVQj8wnvPL2pMXrXUX-33">
          <mxGeometry relative="1" as="geometry" />
        </mxCell>
        <mxCell id="8PRVQj8wnvPL2pMXrXUX-35" value="&lt;div&gt;Function that&amp;nbsp;&lt;/div&gt;&lt;div&gt;determines whether&lt;/div&gt;&lt;div&gt;two events are&amp;nbsp;&lt;/div&gt;&lt;div&gt;the same or not&lt;/div&gt;" style="ellipse;shape=cloud;whiteSpace=wrap;html=1;fontSize=16;" vertex="1" parent="1">
          <mxGeometry x="-253" y="394" width="197" height="128" as="geometry" />
        </mxCell>
        <mxCell id="8PRVQj8wnvPL2pMXrXUX-36" style="edgeStyle=none;curved=1;rounded=0;orthogonalLoop=1;jettySize=auto;html=1;exitX=0.5;exitY=1;exitDx=0;exitDy=0;entryX=0.4;entryY=0.1;entryDx=0;entryDy=0;entryPerimeter=0;fontSize=12;startSize=8;endSize=8;dashed=1;" edge="1" parent="1" source="8PRVQj8wnvPL2pMXrXUX-14" target="8PRVQj8wnvPL2pMXrXUX-35">
          <mxGeometry relative="1" as="geometry" />
        </mxCell>
        <mxCell id="8PRVQj8wnvPL2pMXrXUX-42" value="ArbitrageDetector" style="rounded=0;whiteSpace=wrap;html=1;fontSize=16;" vertex="1" parent="1">
          <mxGeometry x="-635" y="717" width="168.25" height="60" as="geometry" />
        </mxCell>
        <mxCell id="8PRVQj8wnvPL2pMXrXUX-44" style="edgeStyle=none;curved=1;rounded=0;orthogonalLoop=1;jettySize=auto;html=1;exitX=0.5;exitY=0;exitDx=0;exitDy=0;entryX=0.5;entryY=1;entryDx=0;entryDy=0;fontSize=12;startSize=8;endSize=8;" edge="1" parent="1" source="8PRVQj8wnvPL2pMXrXUX-43" target="8PRVQj8wnvPL2pMXrXUX-3">
          <mxGeometry relative="1" as="geometry" />
        </mxCell>
        <mxCell id="8PRVQj8wnvPL2pMXrXUX-49" style="edgeStyle=none;curved=1;rounded=0;orthogonalLoop=1;jettySize=auto;html=1;fontSize=12;startSize=8;endSize=8;entryX=0.5;entryY=0;entryDx=0;entryDy=0;" edge="1" parent="1" source="8PRVQj8wnvPL2pMXrXUX-50" target="8PRVQj8wnvPL2pMXrXUX-28">
          <mxGeometry relative="1" as="geometry">
            <mxPoint x="346" y="276" as="targetPoint" />
          </mxGeometry>
        </mxCell>
        <mxCell id="8PRVQj8wnvPL2pMXrXUX-43" value="handleOdds" style="shape=parallelogram;perimeter=parallelogramPerimeter;whiteSpace=wrap;html=1;fixedSize=1;fontSize=16;" vertex="1" parent="1">
          <mxGeometry x="89" y="202" width="136" height="60" as="geometry" />
        </mxCell>
        <mxCell id="8PRVQj8wnvPL2pMXrXUX-48" style="edgeStyle=none;curved=1;rounded=0;orthogonalLoop=1;jettySize=auto;html=1;exitX=0.5;exitY=1;exitDx=0;exitDy=0;entryX=0.5;entryY=0;entryDx=0;entryDy=0;fontSize=12;startSize=8;endSize=8;" edge="1" parent="1" source="8PRVQj8wnvPL2pMXrXUX-46" target="8PRVQj8wnvPL2pMXrXUX-43">
          <mxGeometry relative="1" as="geometry" />
        </mxCell>
        <mxCell id="8PRVQj8wnvPL2pMXrXUX-46" value="OddsUpdate" style="ellipse;whiteSpace=wrap;html=1;fontSize=16;fillColor=none;" vertex="1" parent="1">
          <mxGeometry x="170" y="133" width="113" height="50" as="geometry" />
        </mxCell>
        <mxCell id="8PRVQj8wnvPL2pMXrXUX-51" value="" style="edgeStyle=none;curved=1;rounded=0;orthogonalLoop=1;jettySize=auto;html=1;fontSize=12;startSize=8;endSize=8;entryX=0.5;entryY=0;entryDx=0;entryDy=0;endArrow=none;endFill=0;startArrow=classic;startFill=1;" edge="1" parent="1" source="8PRVQj8wnvPL2pMXrXUX-43" target="8PRVQj8wnvPL2pMXrXUX-50">
          <mxGeometry relative="1" as="geometry">
            <mxPoint x="157" y="329" as="targetPoint" />
            <mxPoint x="157" y="262" as="sourcePoint" />
          </mxGeometry>
        </mxCell>
        <mxCell id="8PRVQj8wnvPL2pMXrXUX-54" value="" style="edgeStyle=none;curved=1;rounded=0;orthogonalLoop=1;jettySize=auto;html=1;exitX=0;exitY=1;exitDx=0;exitDy=0;entryX=0.5;entryY=0;entryDx=0;entryDy=0;fontSize=12;startSize=8;endSize=8;endArrow=none;endFill=0;" edge="1" parent="1" source="8PRVQj8wnvPL2pMXrXUX-43" target="8PRVQj8wnvPL2pMXrXUX-53">
          <mxGeometry relative="1" as="geometry">
            <mxPoint x="215" y="232" as="sourcePoint" />
            <mxPoint x="522" y="260" as="targetPoint" />
          </mxGeometry>
        </mxCell>
        <mxCell id="8PRVQj8wnvPL2pMXrXUX-53" value="OddsUpdate" style="ellipse;whiteSpace=wrap;html=1;fontSize=16;fillColor=none;" vertex="1" parent="1">
          <mxGeometry x="-413" y="440" width="113" height="35" as="geometry" />
        </mxCell>
        <mxCell id="8PRVQj8wnvPL2pMXrXUX-57" value="updateOdds" style="shape=parallelogram;perimeter=parallelogramPerimeter;whiteSpace=wrap;html=1;fixedSize=1;fontSize=16;" vertex="1" parent="1">
          <mxGeometry x="-488" y="305" width="150" height="60" as="geometry" />
        </mxCell>
        <mxCell id="8PRVQj8wnvPL2pMXrXUX-59" style="edgeStyle=none;curved=1;rounded=0;orthogonalLoop=1;jettySize=auto;html=1;exitX=0;exitY=0.5;exitDx=0;exitDy=0;entryX=0.5;entryY=1;entryDx=0;entryDy=0;entryPerimeter=0;fontSize=12;startSize=8;endSize=8;" edge="1" parent="1" source="8PRVQj8wnvPL2pMXrXUX-57" target="8PRVQj8wnvPL2pMXrXUX-20">
          <mxGeometry relative="1" as="geometry" />
        </mxCell>
        <mxCell id="8PRVQj8wnvPL2pMXrXUX-50" value="OddsUpdate" style="ellipse;whiteSpace=wrap;html=1;fontSize=16;fillColor=none;" vertex="1" parent="1">
          <mxGeometry x="100.5" y="280.5" width="113" height="35" as="geometry" />
        </mxCell>
      </root>
    </mxGraphModel>
  </diagram>
</mxfile>
